<?xml version="1.0" standalone="no"?>
<!DOCTYPE svg PUBLIC "-//W3C//DTD SVG 20010904//EN"
 "http://www.w3.org/TR/2001/REC-SVG-20010904/DTD/svg10.dtd">
<svg version="1.0" xmlns="http://www.w3.org/2000/svg"
 width="1280.000000pt" height="1280.000000pt" viewBox="0 0 1280.000000 1280.000000"
 preserveAspectRatio="xMidYMid meet">
<metadata>
Created by potrace 1.14, written by Peter Selinger 2001-2017
</metadata>
<g transform="translate(0.000000,1280.000000) scale(0.100000,-0.100000)"
fill="#000000" stroke="none">
<path d="M4042 12789 c-34 -4 -79 -11 -100 -14 -20 -3 -50 -8 -67 -10 -16 -2
-75 -16 -130 -31 -55 -14 -104 -27 -110 -28 -19 -4 -60 -18 -90 -31 -16 -7
-57 -23 -90 -36 -95 -36 -256 -120 -322 -166 -17 -13 -35 -23 -38 -23 -19 0
-237 -177 -330 -267 -51 -49 -167 -180 -179 -201 -5 -10 -16 -24 -25 -32 -53
-53 -196 -304 -274 -480 -19 -44 -66 -182 -70 -206 -1 -11 -6 -24 -9 -30 -4
-6 -10 -24 -12 -40 -3 -16 -8 -40 -11 -54 -24 -109 -28 -130 -41 -225 -17
-119 -10 -474 12 -578 2 -12 7 -38 10 -57 3 -19 12 -62 20 -95 8 -33 17 -70
19 -81 8 -36 85 -256 101 -286 8 -15 15 -31 16 -35 2 -13 88 -172 130 -242 35
-56 85 -127 164 -230 51 -66 271 -276 361 -344 56 -42 105 -77 108 -77 4 0 21
-11 38 -24 18 -13 55 -36 82 -51 28 -15 54 -31 59 -36 6 -5 16 -9 24 -9 8 0
26 -8 40 -18 52 -36 327 -137 432 -157 8 -2 15 -4 15 -5 0 -4 89 -21 180 -34
70 -11 109 -15 154 -15 60 -1 49 -8 -25 -15 -33 -4 -71 -8 -85 -11 -13 -2 -44
-6 -69 -9 -25 -3 -56 -9 -70 -12 -14 -3 -36 -7 -50 -10 -195 -39 -453 -140
-640 -253 -205 -123 -440 -328 -568 -496 -25 -33 -49 -62 -52 -65 -21 -19
-200 -309 -200 -325 0 -2 -15 -37 -34 -78 -56 -121 -137 -377 -151 -477 -8
-62 -18 -127 -22 -155 -9 -57 -11 -390 -2 -454 5 -36 11 -81 14 -100 8 -63 30
-163 51 -241 117 -418 343 -774 679 -1068 75 -66 286 -208 385 -259 146 -76
358 -157 495 -188 6 -1 28 -6 50 -10 22 -5 42 -10 45 -10 5 -1 41 -7 140 -21
19 -3 57 -7 84 -10 61 -4 73 -14 20 -15 -38 -1 -49 -2 -129 -12 -68 -9 -201
-36 -295 -61 -94 -25 -340 -122 -351 -139 -3 -5 -10 -9 -15 -8 -13 0 -158 -80
-166 -93 -4 -6 -8 -8 -8 -4 0 9 -187 -122 -241 -169 -75 -63 -249 -243 -306
-315 -33 -42 -87 -116 -118 -164 -56 -85 -175 -313 -190 -364 -4 -14 -13 -38
-20 -55 -29 -66 -86 -269 -99 -355 -3 -19 -8 -46 -10 -59 -28 -136 -28 -490
-1 -656 38 -222 123 -487 207 -639 45 -82 64 -116 85 -146 12 -19 23 -40 23
-46 0 -7 3 -14 8 -16 4 -2 28 -32 54 -68 25 -36 56 -76 67 -90 12 -14 41 -47
64 -74 80 -94 208 -213 309 -288 29 -22 67 -50 83 -63 17 -14 36 -25 43 -25 6
0 12 -4 12 -9 0 -5 8 -11 18 -15 9 -3 31 -14 47 -25 175 -112 507 -237 710
-268 17 -2 41 -6 55 -8 131 -21 439 -28 570 -12 123 15 312 57 433 98 119 40
389 163 395 180 2 5 8 9 14 9 11 0 202 129 233 157 11 10 34 29 50 41 69 53
232 219 295 302 19 25 38 47 41 50 25 20 152 228 204 335 55 111 116 261 130
315 2 8 13 49 24 90 11 41 23 89 26 105 23 118 32 189 40 291 1 23 6 47 9 53
4 6 4 11 -1 11 -4 0 -7 21 -5 47 1 27 2 66 1 88 0 22 0 47 0 55 1 8 1 29 0 45
-1 17 -1 36 0 43 1 14 1 100 0 215 0 43 3 82 6 87 3 6 2 10 -3 10 -5 0 -6 17
-2 40 4 22 4 40 0 40 -4 0 -4 18 0 40 4 22 4 40 0 40 -4 0 -4 18 0 40 4 22 4
40 0 40 -4 0 -4 18 0 40 4 22 4 40 0 40 -4 0 -4 18 0 40 4 22 4 40 0 40 -4 0
-4 18 0 40 4 22 4 40 0 40 -4 0 -4 18 0 40 4 22 4 40 0 40 -4 0 -4 18 0 40 4
22 4 40 0 40 -4 0 -4 18 0 40 4 22 4 40 0 40 -4 0 -4 18 0 40 4 22 4 40 0 40
-4 0 -4 18 0 40 4 22 4 40 0 40 -4 0 -4 18 0 40 4 22 4 40 0 40 -4 0 -4 18 0
40 4 22 4 40 0 40 -4 0 -4 18 0 40 4 23 3 40 -2 40 -5 0 -6 5 -3 11 8 12 9
164 2 176 -2 4 -1 17 3 28 4 11 4 34 0 51 -4 18 -4 37 0 44 4 7 4 26 0 44 -4
17 -4 40 0 50 3 11 3 39 0 63 -4 23 -3 43 2 43 5 0 5 7 0 16 -5 9 -6 32 -2 50
4 18 5 36 2 39 -4 3 -5 25 -3 48 6 81 6 147 0 147 -3 0 -3 22 1 48 3 27 3 60
0 73 -4 13 -4 33 0 44 4 11 4 34 0 51 -4 18 -4 37 0 44 4 6 4 28 0 49 -4 20
-4 46 0 56 4 11 4 34 0 51 -4 18 -4 38 1 45 4 7 5 17 2 22 -5 8 -5 53 0 180 1
31 -1 57 -4 57 -3 0 -3 20 1 45 4 25 4 48 0 50 -4 3 -4 22 0 44 4 22 4 45 0
51 -4 6 -4 29 0 50 4 22 5 42 2 45 -4 3 -5 25 -3 48 6 78 6 147 1 147 -3 0 -5
25 -5 55 0 30 4 55 8 55 5 0 5 4 2 10 -8 13 -9 299 -1 307 3 4 7 -6 7 -20 1
-15 2 -30 3 -34 1 -5 6 -35 10 -68 4 -32 10 -68 13 -80 8 -32 23 -98 29 -125
3 -14 22 -74 42 -135 20 -60 37 -112 37 -115 11 -37 108 -229 163 -324 121
-203 329 -436 522 -584 30 -23 60 -46 65 -51 6 -4 15 -10 20 -12 6 -2 43 -26
83 -52 99 -66 331 -183 382 -193 3 0 18 -6 33 -12 15 -7 40 -15 55 -18 15 -4
32 -9 37 -13 6 -3 15 -6 20 -7 6 -1 39 -10 75 -19 143 -35 224 -49 360 -61
124 -10 389 -4 460 11 14 3 42 7 63 10 73 10 283 64 367 96 47 17 100 37 118
43 17 6 32 14 32 18 0 5 7 8 15 8 50 0 382 208 509 320 52 45 221 217 246 249
14 18 35 44 48 59 89 105 302 482 302 535 0 9 5 17 10 17 6 0 9 3 8 8 -1 4 9
43 24 87 28 85 65 230 74 286 2 19 7 45 9 59 20 122 27 420 12 540 -4 36 -10
81 -12 100 -2 19 -8 53 -13 75 -11 51 -11 50 -17 83 -9 42 -25 101 -48 172
-12 36 -22 67 -22 70 -1 3 -5 14 -10 25 -114 290 -267 531 -467 735 -132 135
-196 189 -338 284 -148 99 -221 139 -361 199 -99 42 -257 95 -338 112 -12 3
-31 7 -43 10 -13 3 -38 8 -57 11 -18 3 -43 8 -55 10 -27 6 -87 13 -155 19 -65
6 -80 15 -25 16 21 0 53 2 69 5 17 2 46 6 65 8 61 7 186 33 292 60 148 38 502
198 530 240 4 6 8 8 8 4 0 -9 187 122 241 169 71 59 247 241 301 308 61 77
128 172 128 181 0 3 11 20 24 37 40 53 144 268 186 386 37 104 83 268 94 336
2 17 5 32 6 35 1 3 2 7 2 10 0 3 5 48 13 100 12 93 14 417 1 490 -3 19 -8 55
-11 80 -3 25 -13 76 -22 114 -8 37 -16 73 -17 80 -2 6 -9 31 -16 56 -7 25 -14
50 -16 56 -8 40 -75 207 -124 309 -144 298 -378 578 -643 772 -40 29 -76 56
-82 61 -65 52 -323 184 -446 227 -41 15 -81 29 -89 32 -8 3 -19 7 -25 9 -5 1
-37 10 -70 19 -33 9 -71 18 -85 21 -14 3 -41 9 -60 14 -19 4 -58 11 -85 15
-28 3 -64 9 -80 12 -46 10 -4671 12 -4743 2z m4288 -4261 c0 -5 -10 -8 -22 -8
-56 -1 -275 -42 -338 -62 -19 -7 -41 -13 -47 -15 -26 -6 -38 -10 -55 -17 -9
-4 -22 -9 -30 -10 -7 -2 -26 -8 -43 -15 -16 -6 -55 -21 -85 -33 -83 -33 -234
-113 -340 -181 -52 -34 -97 -64 -100 -67 -3 -3 -39 -32 -80 -65 -95 -75 -237
-217 -319 -320 -55 -68 -181 -250 -181 -260 0 -2 -16 -32 -36 -67 -20 -34 -37
-67 -38 -73 -1 -5 -8 -21 -16 -35 -8 -14 -15 -27 -15 -30 -1 -3 -6 -16 -12
-30 -23 -53 -55 -136 -59 -150 -2 -8 -17 -58 -33 -110 -16 -52 -31 -113 -35
-135 -3 -22 -8 -50 -11 -62 -12 -53 -14 -65 -21 -130 -4 -37 -7 -74 -7 -81 0
-6 -2 -10 -5 -7 -6 6 -5 261 1 272 2 4 1 17 -3 27 -3 11 -3 37 0 58 4 21 4 38
-1 38 -4 0 -4 13 1 29 4 15 4 34 0 41 -4 6 -4 27 0 46 4 19 4 36 0 39 -4 2 -4
23 0 45 4 22 4 40 0 40 -4 0 -4 16 0 35 4 19 4 37 0 40 -4 2 -4 23 0 45 4 22
4 40 -1 40 -4 0 -4 13 1 29 4 15 4 34 0 41 -4 6 -4 27 0 46 4 19 4 36 0 39 -4
2 -4 23 0 45 4 22 4 40 0 40 -4 0 -4 18 0 40 4 22 4 40 0 40 -4 0 -4 18 0 40
4 22 4 40 0 40 -4 0 -4 18 0 40 4 22 4 40 0 40 -4 0 -4 18 0 40 4 22 4 40 0
40 -4 0 -4 18 0 40 4 22 4 40 0 40 -4 0 -4 18 0 40 4 22 4 40 0 40 -4 0 -4 18
0 40 4 22 4 40 0 40 -4 0 -4 18 0 40 4 22 4 40 0 40 -4 0 -4 17 -1 38 4 20 4
52 0 70 -3 18 -3 34 1 37 4 2 4 25 0 49 -4 25 -3 43 2 40 4 -3 4 7 -2 21 -10
26 -9 27 27 37 27 7 1903 3 1903 -4z m34 4 c3 -5 -1 -9 -9 -9 -8 0 -12 4 -9 9
3 4 7 8 9 8 2 0 6 -4 9 -8z"/>
</g>
</svg>
