<?xml version="1.0" encoding="UTF-8" standalone="no"?>
<!-- Created with Inkscape (http://www.inkscape.org/) -->

<svg
   xmlns:dc="http://purl.org/dc/elements/1.1/"
   xmlns:cc="http://creativecommons.org/ns#"
   xmlns:rdf="http://www.w3.org/1999/02/22-rdf-syntax-ns#"
   xmlns:svg="http://www.w3.org/2000/svg"
   xmlns="http://www.w3.org/2000/svg"
   xmlns:sodipodi="http://sodipodi.sourceforge.net/DTD/sodipodi-0.dtd"
   xmlns:inkscape="http://www.inkscape.org/namespaces/inkscape"
   version="1.1"
   id="svg2"
   xml:space="preserve"
   width="4096"
   height="4096"
   viewBox="0 0 4095.9998 4096"
   sodipodi:docname="adidas-originals-logo.svg"
   inkscape:version="0.92.2 (5c3e80d, 2017-08-06)"><metadata
     id="metadata8"><rdf:RDF><cc:Work
         rdf:about=""><dc:format>image/svg+xml</dc:format><dc:type
           rdf:resource="http://purl.org/dc/dcmitype/StillImage" /><dc:title></dc:title></cc:Work></rdf:RDF></metadata><defs
     id="defs6"><clipPath
       clipPathUnits="userSpaceOnUse"
       id="clipPath20"><path
         d="m 1742.75,1234.45 h 8420.05 v 5950 H 1742.75 Z"
         id="path18"
         inkscape:connector-curvature="0" /></clipPath><clipPath
       clipPathUnits="userSpaceOnUse"
       id="clipPath50"><path
         d="m 6581.31,5411.61 h -1250 V 4196.1 h 1250 z"
         id="path48"
         inkscape:connector-curvature="0" /></clipPath><clipPath
       clipPathUnits="userSpaceOnUse"
       id="clipPath64"><path
         d="m 1742.75,1234.45 h 8420.05 v 5950 H 1742.75 Z"
         id="path62"
         inkscape:connector-curvature="0" /></clipPath><clipPath
       clipPathUnits="userSpaceOnUse"
       id="clipPath20-6"><path
         d="m 1742.75,1234.45 h 8420.05 v 5950 H 1742.75 Z"
         id="path18-2"
         inkscape:connector-curvature="0" /></clipPath><clipPath
       clipPathUnits="userSpaceOnUse"
       id="clipPath50-0"><path
         d="m 6581.31,5411.61 h -1250 V 4196.1 h 1250 z"
         id="path48-4"
         inkscape:connector-curvature="0" /></clipPath><clipPath
       clipPathUnits="userSpaceOnUse"
       id="clipPath64-3"><path
         d="m 1742.75,1234.45 h 8420.05 v 5950 H 1742.75 Z"
         id="path62-0"
         inkscape:connector-curvature="0" /></clipPath></defs><sodipodi:namedview
     pagecolor="#ffffff"
     bordercolor="#666666"
     borderopacity="1"
     objecttolerance="10"
     gridtolerance="10"
     guidetolerance="10"
     inkscape:pageopacity="0"
     inkscape:pageshadow="2"
     inkscape:window-width="1600"
     inkscape:window-height="837"
     id="namedview4"
     showgrid="false"
     inkscape:zoom="0.10517471"
     inkscape:cx="1103.2038"
     inkscape:cy="1879.5095"
     inkscape:window-x="-8"
     inkscape:window-y="-8"
     inkscape:window-maximized="1"
     inkscape:current-layer="g10" /><g
     id="g10"
     inkscape:groupmode="layer"
     inkscape:label="_14047508571"
     transform="matrix(1.3333333,0,0,-1.3333333,-232.36735,4260.5934)"><g
       id="g12"
       transform="scale(0.1)" /><g
       transform="matrix(1.6077333,0,0,1.6077333,-7865.8795,-6063.8726)"
       id="g14"><g
         id="g16"
         clip-path="url(#clipPath20-6)" /></g><g
       transform="matrix(1.6077333,0,0,1.6077333,-7865.8795,-6063.8726)"
       id="g44"><g
         id="g46"
         clip-path="url(#clipPath50-0)"><path
           d="m 5441.1,4196.1 c -60.47,0 -109.79,49.45 -109.79,109.92 0,61.73 49.32,109.8 109.79,109.8 23.45,0 45.7,-6.18 64.23,-18.56 v 16.07 h 51.77 v -212.21 h -51.77 v 13.59 c -18.53,-11.16 -39.51,-18.61 -64.23,-18.61 z m -59.19,109.92 c 0,-32.12 28.38,-60.47 60.45,-60.47 34.53,0 62.97,28.35 62.97,60.47 0,33.3 -28.44,61.73 -62.97,61.73 -32.07,0 -60.45,-28.43 -60.45,-61.73 z m 303.53,-109.92 c -60.49,0 -111.07,49.45 -111.07,109.92 0,61.73 50.58,109.8 111.07,109.8 23.44,0 44.4,-6.18 62.95,-18.56 v 88.93 h 53.04 v -285.07 h -53.04 v 13.59 c -18.55,-11.16 -39.51,-18.61 -62.95,-18.61 z m -60.49,109.92 c 0,-32.12 28.39,-60.47 62.97,-60.47 32.06,0 60.47,28.35 60.47,60.47 0,33.3 -28.41,61.73 -60.47,61.73 -34.58,0 -62.97,-28.43 -62.97,-61.73 z m 254.18,-104.9 h -51.81 v 212.21 h 51.81 z m 0,231.98 h -51.81 v 53.09 h 51.81 z m 195.02,53.09 h 51.82 v -285.07 h -51.82 v 13.59 c -17.25,-11.16 -39.52,-18.61 -62.9,-18.61 -60.55,0 -109.84,49.45 -109.84,109.92 0,61.73 49.29,109.8 109.84,109.8 23.38,0 44.39,-6.18 62.9,-18.56 z m -122.14,-180.17 c 0,-32.12 28.32,-60.47 60.44,-60.47 33.29,0 61.7,28.35 61.7,60.47 0,33.3 -28.41,61.73 -61.7,61.73 -32.12,0 -60.44,-28.43 -60.44,-61.73 z m 302.26,-109.92 c -60.48,0 -111.04,49.45 -111.04,109.92 0,61.73 50.56,109.8 111.04,109.8 23.53,0 44.46,-6.18 61.77,-18.56 v 16.07 h 53.04 v -212.21 h -53.04 v 13.59 c -17.31,-11.16 -38.24,-18.61 -61.77,-18.61 z m -59.24,109.92 c 0,-32.12 28.45,-60.47 61.79,-60.47 32,0 59.22,28.35 59.22,60.47 0,33.3 -27.22,61.73 -59.22,61.73 -33.34,0 -61.79,-28.43 -61.79,-61.73 z m 290.23,-109.92 c 51.83,0 95.05,21.06 95.05,72.95 0,29.58 -20.98,49.32 -54.31,57.94 -34.57,8.63 -78.99,7.41 -78.99,29.59 2.48,14.85 16.04,18.54 37.02,18.54 32.14,0 33.33,-17.28 34.6,-28.36 h 53.01 c -3.7,40.66 -37.04,69.06 -90.05,69.06 -55.59,0 -87.66,-29.67 -87.66,-67.92 0,-22.17 11.07,-41.88 29.66,-51.77 13.56,-6.19 32.04,-11.11 54.28,-14.83 23.43,-2.43 44.48,-4.88 45.67,-20.94 0,-11.14 -11.16,-24.73 -35.8,-24.73 -35.78,0 -43.22,19.77 -43.22,33.42 h -55.5 c 1.25,-43.22 36.98,-72.95 96.24,-72.95 z m -367.92,696.04 c 2.48,28.38 4.95,55.54 4.95,87.6 0,172.71 -77.72,351.67 -162.91,431.87 -86.38,-80.2 -162.88,-259.16 -162.88,-431.87 0,-32.06 0,-59.22 4.93,-87.6 z m -344.27,0 c -13.6,23.4 -32.14,45.65 -50.58,67.87 -106.17,124.59 -270.26,201.16 -382.55,208.53 -7.39,-80.2 17.25,-177.7 66.62,-276.4 z m 186.31,-347.95 c 25.87,27.12 53.07,64.16 77.76,111.03 h -156.75 c 25.95,-46.87 50.65,-83.91 78.99,-111.03 z m -87.57,7.39 c 1.19,27.11 1.19,64.11 -3.79,103.64 h -251.7 c 88.93,-65.41 185.11,-98.68 255.49,-103.64 z m 708.27,616.96 c -113.55,-7.37 -276.41,-83.94 -382.51,-208.53 -19.76,-22.22 -37.02,-44.47 -50.63,-67.87 h 365.23 c 49.35,98.7 75.24,196.2 67.91,276.4 z m -278.85,-513.32 h -249.31 c -7.35,-39.53 -7.35,-76.53 -7.35,-103.64 72.77,4.96 169.05,38.23 256.66,103.64 z m 112.26,91.28 h -909.42 c 14.79,-17.28 30.82,-33.25 46.85,-44.38 h 812.01 c 19.64,11.13 38.25,27.1 50.56,44.38 z m 74.05,98.71 c -7.42,-14.79 -21.01,-35.75 -33.38,-48.06 h -990.79 c -7.45,9.86 -24.73,32.03 -32.15,48.06 h 1056.32"
           style="fill:#0079c1;fill-opacity:1;fill-rule:nonzero;stroke:none"
           id="path52"
           inkscape:connector-curvature="0" /><path
           d="m 6545.11,4482.22 c -12.3,0 -22.28,-10.19 -22.28,-22.66 0,-12.44 9.98,-22.63 22.28,-22.63 12.34,0 22.44,10.19 22.44,22.63 0,12.47 -10.1,22.66 -22.44,22.66 z m 0,-49.21 c -14.64,0 -26.56,11.84 -26.56,26.55 0,14.64 11.92,26.56 26.56,26.56 14.7,0 26.57,-11.92 26.57,-26.56 0,-14.71 -11.87,-26.55 -26.57,-26.55"
           style="fill:#0079c1;fill-opacity:1;fill-rule:nonzero;stroke:none"
           id="path54"
           inkscape:connector-curvature="0" /><path
           d="m 6545.95,4470.59 h -5.42 v -10.28 h 5.42 c 3.24,0 5.48,2.19 5.48,5.07 0,2.96 -2.24,5.21 -5.48,5.21 z m 5.63,-25.57 -6.66,11.92 h -4.39 v -11.92 h -4.04 v 29.1 h 9.9 c 5.04,0 9.17,-3.77 9.17,-8.74 0,-4.18 -2.61,-6.84 -6.21,-7.94 l 6.91,-12.42 h -4.68"
           style="fill:#0079c1;fill-opacity:1;fill-rule:nonzero;stroke:none"
           id="path56"
           inkscape:connector-curvature="0" /></g></g><g
       transform="matrix(1.6077333,0,0,1.6077333,-7865.8795,-6063.8726)"
       id="g58"><g
         id="g60"
         clip-path="url(#clipPath64-3)" /></g></g></svg>