<?xml version="1.0" encoding="utf-8"?>
<!-- Generator: Adobe Illustrator 27.0.1, SVG Export Plug-In . SVG Version: 6.00 Build 0)  -->
<svg version="1.1" id="Layer_1" xmlns="http://www.w3.org/2000/svg" xmlns:xlink="http://www.w3.org/1999/xlink" x="0px" y="0px"
	 viewBox="0 0 307.4 254.85" style="enable-background:new 0 0 307.4 254.85;" xml:space="preserve">
<style type="text/css">
	.st0{fill:#A23B1A;}
	.st1{fill:#DC723D;}
	.st2{fill:#E7E3C8;}
	.st3{fill:#CD9685;}
	.st4{opacity:0.75;fill:#CD9685;}
	.st5{fill:#BE8D75;}
	.st6{fill:#FBE6DA;}
	.st7{fill:#F7A149;}
	.st8{opacity:0.55;fill:#CD9685;}
	.st9{fill:#FFF5DE;}
	.st10{fill:#EBEBEC;}
	.st11{fill:#CBCCCE;}
	.st12{fill:#FFFFFF;}
	.st13{fill:#BCBEC0;}
	.st14{fill:#C27537;}
	.st15{fill:#F17F4E;}
	.st16{fill:#F59245;}
	.st17{fill:#F4A793;}
	.st18{clip-path:url(#SVGID_00000032630062875472133950000002834750367119654078_);}
	.st19{fill:#5B2400;}
	.st20{fill:#D3D5D6;}
	.st21{fill:#593410;}
	.st22{fill:#9F6234;}
	.st23{fill:#DF7938;}
	.st24{fill:#A3A5A8;}
</style>
<g>
	<g>
		<path class="st0" d="M287.66,13.88c-2.93-3.63-6.27-6.96-10.09-9.66c-3.78-2.68-7.99-4.76-12.34-6.35
			c-8.6-3.14-17.8-4.36-26.93-3.91c-17.43,0.86-34.73,7.42-48,18.81c-6.7,5.75-12.34,12.78-16.48,20.58
			c-4.07,7.66-6.6,16.05-7.75,24.64c-1.19,8.9-1.05,18.1,0.21,26.99c1.34,9.53,4.65,18.64,8.71,27.33
			c4.15,8.89,9.08,17.4,13.64,26.08c4.62,8.79,8.46,18,10.62,27.72c0.57,3.6,0.85,7.25,0.95,10.84c0.12,4.43-0.11,8.87-0.91,13.24
			c-0.85,4.71-2.56,9.15-4.18,13.64c-0.89,2.48-1.75,5.11-3.1,7.38c-1.2,2.02-2.88,3.73-3.93,5.84c-0.05,0.11-0.1,0.3,0.04,0.37
			c1.78,0.97,3.93,1.06,5.91,0.97c2.07-0.1,4.12-0.44,6.14-0.86c5.02-1.05,9.83-2.98,14.28-5.52c8.56-4.87,15.82-11.88,20.92-20.3
			c4.93-8.13,7.85-17.3,9.52-26.62c1.94-10.84,1.97-21.84,0.29-32.72c-0.85-5.47-2.09-10.88-3.58-16.21
			c-1.5-5.38-3.16-10.76-5.19-15.97c-0.02-0.05-0.04-0.11-0.07-0.16c10.89,10.07,28.2,9.86,41.49,4.29
			c7.81-3.27,14.49-8.64,19.24-15.66c4.79-7.09,7.56-15.5,8.08-24.02C306.23,46.47,298.95,27.89,287.66,13.88z"/>
		<path class="st1" d="M303.08,73.04c-1.95,8.07-5.95,15.69-11.83,21.58c-6.13,6.14-14.19,10.06-22.64,11.8
			c-8.46,1.74-17.82,1.33-25.58-2.76c-2.79-1.47-5.21-3.39-7.28-5.61c-0.99-0.93-1.87-1.97-2.53-3.14
			c-5.1-7.3-7.02-16.88-5.64-25.73c1.11-7.14,4.47-13.72,9.61-18.81c5.75-5.69,14.09-8.68,22.15-7.32c0.66,0.11,1.3,0.26,1.94,0.44
			c0.23,0.02,0.46,0.06,0.68,0.11c1.64,0.37,3.19,1.23,4.61,2.1c1,0.61,1.93,1.31,2.74,2.12c-0.05-0.07-0.11-0.15-0.16-0.22
			c0.93,0.82,1.77,1.74,2.48,2.78c2.25,3.29,3.03,7.66,2.65,11.58c-0.37,3.73-1.91,7.36-4.68,9.94c-2.76,2.57-6.53,3.81-10.27,3.55
			c-3.43-0.23-7.41-1.73-8.62-5.25c-0.12-0.36-0.22-0.74-0.3-1.11c-0.03,0.11-0.05,0.23-0.07,0.34c-0.02,0.42,0.02,0.84,0.13,1.25
			c0.36,1.36,1.31,2.48,2.39,3.35c1.37,0.98,3.04,1.61,4.64,1.9c3.94,0.72,8.02-0.15,11.28-2.52c3.26-2.37,5.31-6.01,6.07-9.93
			c0.78-4,0.24-8.33-1.57-11.99c-1.16-2.34-3.05-4.26-5.19-5.72c-1-0.68-2.06-1.25-3.14-1.78c-0.33-0.17-0.68-0.32-1.02-0.47
			c-0.02-0.01-0.03-0.01-0.05-0.02c-0.07-0.03-0.14-0.06-0.21-0.09c-4.74-2.03-10.62-1.77-15.47-0.37
			c-7.59,2.18-13.74,7.92-17.55,14.72c-6.62,11.81-5.8,27.83,2.44,38.67c0.53,0.69,1.08,1.35,1.65,1.97
			c0.78,1.99,1.48,4.01,2.17,6.03c0.9,2.61,1.74,5.24,2.55,7.89c1.57,5.19,2.95,10.44,3.99,15.76c2.08,10.66,2.7,21.58,1.29,32.37
			c-1.22,9.35-3.62,18.69-7.92,27.12c-4.35,8.53-10.68,15.81-18.57,21.26c-4.2,2.9-8.79,5.28-13.66,6.84
			c-2.14,0.69-4.34,1.2-6.55,1.58c-2.14,0.37-4.35,0.63-6.53,0.4c-0.9-0.09-1.81-0.29-2.62-0.69c0.92-1.75,2.3-3.23,3.4-4.87
			c1.31-1.95,2.13-4.22,2.95-6.41c0.86-2.3,1.64-4.64,2.5-6.95c0.83-2.25,1.52-4.54,2.02-6.88c0.91-4.21,1.31-8.54,1.31-12.88
			c0.05,0.96,0.09,1.92,0.1,2.88c0,0.16,0.26,0.07,0.26-0.06c0.03-4.54-0.37-9.04-1.14-13.49c-0.11-0.77-0.23-1.54-0.36-2.3
			c-0.58-3.39-1.39-6.82-2.74-10.01c-0.31-0.94-0.63-1.88-0.97-2.82c-3.27-8.97-7.95-17.28-12.48-25.66
			c-4.51-8.35-8.97-16.77-12.25-25.7c-1.59-4.34-2.9-8.78-3.79-13.31c-0.91-4.63-1.33-9.35-1.53-14.06
			c-0.35-8.6,0.28-17.28,2.44-25.63c2.14-8.31,5.79-16.18,10.79-23.15c10.18-14.21,25.5-24.02,42.33-28.42
			c17.03-4.45,36.29-3.59,51.76,5.41c7.99,4.65,13.97,11.69,18.84,19.43c4.74,7.53,8.26,15.72,10.27,24.39
			C304.58,55.12,305.18,64.35,303.08,73.04z"/>
		<path class="st2" d="M302.58,46.47c-2.01-8.68-5.53-16.86-10.27-24.39c-4.87-7.74-10.86-14.78-18.84-19.43
			c-15.47-9-34.73-9.86-51.76-5.41c-3.66,0.96-7.24,2.17-10.72,3.62c0.17-0.01,0.34-0.03,0.5-0.04c5.97-0.4,12.05,0.23,17.82,1.85
			c0.25,0.07,0.25,0.43,0,0.5c-2.63,0.77-5.08,2.06-7.39,3.53c3.77-0.69,7.77-0.82,11.33,0.73c0.23,0.1,0.12,0.41-0.06,0.48
			c-1.75,0.7-3.51,1.39-5.28,2.02c0.81,0.01,1.63,0.05,2.44,0.15c4.5,0.53,9.1,2.41,12,6.01c0.11,0.13,0.1,0.4-0.12,0.44
			c-2.07,0.34-4.16,0.42-6.24,0.66c4.9,1.08,9.93,3.44,12.85,7.57c0.13,0.18-0.05,0.38-0.23,0.39c-4.16,0.39-8.31,1.4-12.07,3.24
			c1.13-0.06,2.26-0.03,3.39,0.09c5.22,0.59,10.15,3.05,14.03,6.55c0.17,0.15,0.04,0.45-0.18,0.45c-3.08-0.08-6.14,0.45-9.01,1.56
			c-4.98,1.93-9.19,5.51-12.46,9.69c-3,3.85-5.27,8.28-6.71,12.94c0.6-0.81,1.22-1.61,1.87-2.38c2.57-3.04,5.65-5.7,9.21-7.45
			c3.24-3.13,7.13-5.56,11.49-6.82c4.86-1.4,10.73-1.66,15.47,0.37c0.07,0.03,0.14,0.06,0.21,0.09c0.02,0.01,0.03,0.01,0.05,0.02
			c0.35,0.15,0.69,0.31,1.02,0.47c1.08,0.53,2.14,1.11,3.14,1.78c2.14,1.46,4.04,3.38,5.19,5.72c1.81,3.66,2.35,7.99,1.57,11.99
			c-0.76,3.92-2.81,7.56-6.07,9.93c-3.25,2.37-7.33,3.24-11.28,2.52c-1.6-0.29-3.27-0.93-4.64-1.9c-1.08-0.87-2.04-1.99-2.39-3.35
			c-0.11-0.41-0.15-0.83-0.13-1.25c0.02-0.12,0.04-0.23,0.07-0.34c0.08,0.38,0.17,0.75,0.3,1.11c1.21,3.52,5.2,5.02,8.62,5.25
			c3.74,0.26,7.51-0.99,10.27-3.55c2.77-2.57,4.31-6.21,4.68-9.94c0.39-3.92-0.4-8.29-2.65-11.58c-0.71-1.03-1.55-1.95-2.48-2.78
			c0.05,0.07,0.11,0.15,0.16,0.22c-0.82-0.81-1.74-1.51-2.74-2.12c-1.42-0.87-2.97-1.73-4.61-2.1c-0.22-0.05-0.45-0.09-0.68-0.11
			c-0.64-0.18-1.28-0.33-1.94-0.44c-7.38-1.24-14.98,1.16-20.62,5.93c0.68-0.25,1.38-0.47,2.09-0.65c0.27-0.07,0.42,0.24,0.25,0.44
			c-1.96,2.36-3.53,5.01-5.05,7.67c3.87-2.22,8.43-2.74,12.69-1.22c0.19,0.07,0.29,0.38,0.06,0.48c-2.74,1.17-5.49,2.38-7.88,4.17
			c2.91-0.17,5.88,0.67,8.31,2.27c0.26,0.17,0.08,0.52-0.2,0.48c-2.35-0.37-4.6,0.21-6.65,1.39c-1.86,1.08-3.5,2.49-5.18,3.82
			c4.02,0.9,8.64,2.99,9.56,7.39c0.03,0.17-0.07,0.33-0.25,0.33c-1.77,0.01-3.52,0.27-5.28,0.15c2.58,1.64,5.08,3.87,5.96,6.84
			c0.06,0.21-0.13,0.35-0.32,0.32c-2.73-0.41-5.32-1.42-7.94-2.25c0.62,0.62,1.18,1.29,1.71,1.98c0.95,1.23,1.81,2.54,2.57,3.9
			c0.67,1.2,1.27,2.46,1.71,3.77c0.35,1.03,0.62,2.14,0.55,3.24c-0.06,0.88-0.39,1.73-1.14,2.24c-0.92,0.63-2.14,0.62-3.2,0.48
			c-1.63-0.21-3.12-0.71-4.44-1.71c-1.48-1.12-2.69-2.57-3.79-4.06c-0.87-1.19-1.66-2.44-2.38-3.72c-0.85-1.1-1.65-2.24-2.37-3.43
			c0.97,4.18,2.68,8.16,5.1,11.63c0.67,1.16,1.55,2.21,2.53,3.14c2.06,2.23,4.48,4.14,7.28,5.61c7.76,4.09,17.12,4.5,25.58,2.76
			c8.45-1.74,16.52-5.66,22.64-11.8c5.88-5.89,9.88-13.51,11.83-21.58C305.18,64.35,304.58,55.12,302.58,46.47z"/>
		<path class="st3" d="M258,42.03c0.75,0.07,1.48,0.17,2.21,0.32c-0.11-0.07-0.22-0.14-0.33-0.21
			C259.26,42.05,258.63,42.02,258,42.03z"/>
		<path class="st4" d="M239.43,112.3c-0.8-2.64-1.65-5.27-2.55-7.89c-0.69-2.02-1.38-4.04-2.17-6.03c-0.57-0.62-1.12-1.28-1.65-1.97
			c-8.25-10.84-9.07-26.85-2.44-38.67c3.81-6.8,9.96-12.54,17.55-14.72c2.14-0.62,4.48-1.01,6.83-1.08
			c0.03-0.01,0.05-0.01,0.08-0.02c1.25-0.28,2.55-0.44,3.83-0.39c-4.32-2.59-9.07-4.23-14.16-4.63c-5.09-0.4-10.25,0.23-15.14,1.69
			c-9.7,2.88-18.87,9.24-23.17,18.63c-2.53,5.52-3.18,11.89-2.79,17.89c0.43,6.53,2.19,12.89,4.35,19.04
			c2.15,6.13,4.71,12.11,6.98,18.19c2.37,6.36,4.3,12.9,5.58,19.58c0.68,3.55,1.16,7.14,1.34,10.74c0.14,2.75,0.05,5.5-0.09,8.25
			c-0.13,2.58-0.34,5.18-0.92,7.7c-0.49,2.15-1.26,4.42-2.88,5.98c-0.15,0.15-0.37,0.07-0.44-0.12c-1.63-4.35-1.9-9.34-4.73-13.15
			c0.97,5.91,2.81,11.88,1.78,17.89c-0.05,0.28-0.42,0.22-0.5,0c-1.04-2.8-1.65-5.8-3-8.47c1.13,4.27,1.47,8.94,0.49,13.21
			c-0.07,0.31-0.48,0.2-0.51-0.07c-0.11-0.91-0.24-1.81-0.39-2.72c-1.15-6.77-3.58-13.25-6.8-19.3
			c-3.19-5.99-7.09-11.57-11.16-16.98c-4.1-5.45-8.39-10.75-12.43-16.24c-1.48-2.01-2.92-4.04-4.31-6.12
			c2.4,5.07,5.04,10.03,7.7,14.97c4.52,8.37,9.21,16.69,12.48,25.66c0.34,0.93,0.66,1.87,0.97,2.82c1.34,3.19,2.15,6.62,2.74,10.01
			c0.13,0.76,0.25,1.53,0.36,2.3c0.77,4.44,1.17,8.95,1.14,13.49c0,0.13-0.26,0.22-0.26,0.06c-0.01-0.96-0.05-1.92-0.1-2.88
			c0,4.34-0.41,8.67-1.31,12.88c-0.51,2.34-1.19,4.63-2.02,6.88c-0.85,2.31-1.63,4.64-2.5,6.95c-0.82,2.18-1.64,4.46-2.95,6.41
			c-1.1,1.64-2.48,3.11-3.4,4.87c0.82,0.4,1.72,0.59,2.62,0.69c2.17,0.23,4.38-0.04,6.53-0.4c2.22-0.38,4.41-0.89,6.55-1.58
			c4.87-1.56,9.46-3.94,13.66-6.84c7.89-5.44,14.22-12.72,18.57-21.26c4.3-8.43,6.7-17.77,7.92-27.12
			c1.41-10.79,0.8-21.71-1.29-32.37C242.38,122.74,241,117.49,239.43,112.3z"/>
		<path class="st4" d="M256.46,41.49c-6.52-1.64-13.73-0.48-20.02,1.58c-5.83,1.91-10.83,6.21-14.2,11.26
			c-3.35,5.01-5.31,10.87-6.07,16.83c-0.8,6.29-0.11,12.48,1.43,18.6c3.27,12.98,9.5,24.95,14.27,37.4
			c4.58,11.95,7.85,24.81,4.93,37.58c-1.52,6.64-4.45,13.26-9.09,18.31c-4.79,5.22-11.03,9.01-17.51,11.76
			c-0.18,0.07-0.39-0.01-0.39-0.23c-0.01-4.62-0.32-9.24-1.14-13.79c-1.33-7.41-4.02-14.64-8.63-20.64
			c-0.73-0.95-1.52-1.86-2.33-2.73c1.02,2.77,1.68,5.69,2.18,8.58c0.13,0.76,0.25,1.53,0.36,2.3c0.77,4.44,1.17,8.95,1.14,13.49
			c0,0.13-0.26,0.22-0.26,0.06c-0.01-0.96-0.05-1.92-0.1-2.88c0,4.34-0.41,8.67-1.31,12.88c-0.51,2.34-1.19,4.63-2.02,6.88
			c-0.85,2.31-1.63,4.64-2.5,6.95c-0.82,2.18-1.64,4.46-2.95,6.41c-1.1,1.64-2.48,3.11-3.4,4.87c0.82,0.4,1.72,0.59,2.62,0.69
			c2.17,0.23,4.38-0.04,6.53-0.4c2.22-0.38,4.41-0.89,6.55-1.58c4.87-1.56,9.46-3.94,13.66-6.84c7.89-5.44,14.22-12.72,18.57-21.26
			c4.3-8.43,6.7-17.77,7.92-27.12c1.41-10.79,0.8-21.71-1.29-32.37c-1.04-5.32-2.42-10.58-3.99-15.76c-0.8-2.64-1.65-5.27-2.55-7.89
			c-0.69-2.02-1.38-4.04-2.17-6.03c-0.57-0.62-1.12-1.28-1.65-1.97c-8.25-10.84-9.07-26.85-2.44-38.67
			c3.81-6.8,9.96-12.54,17.55-14.72c2.14-0.62,4.48-1.01,6.83-1.08c0.03-0.01,0.05-0.01,0.08-0.02c0.6-0.13,1.22-0.24,1.84-0.31
			C256.77,41.57,256.61,41.53,256.46,41.49z"/>
		<path class="st4" d="M254.58,69.21c0.72-0.29,1.4-0.68,2.03-1.13c2.04-1.47,3.85-4.12,3.28-6.75c-0.69-3.15-4.35-3.76-7.07-3.65
			c-2.78,0.11-5.42,1.28-6.96,3.67c-1.44,2.24-1.77,5.03-1.47,7.63c0.32,2.78,1.4,5.55,3.15,7.74c2.16,2.7,5.46,4.3,8.84,4.83
			c3.66,0.57,7.39-0.33,10.52-2.26c3.19-1.96,5.75-4.88,7.43-8.21c1.72-3.4,2.52-7.29,2.09-11.09c-0.3-2.62-1.21-5.2-2.66-7.41
			c1.41,3.42,1.79,7.3,1.09,10.91c-0.76,3.92-2.81,7.56-6.07,9.93c-3.25,2.37-7.33,3.24-11.28,2.52c-1.6-0.29-3.27-0.93-4.64-1.9
			c-1.08-0.87-2.04-1.99-2.39-3.35c-0.11-0.41-0.15-0.83-0.13-1.25c0.02-0.12,0.04-0.23,0.07-0.34c0.08,0.38,0.17,0.75,0.3,1.11
			c1.21,3.52,5.2,5.02,8.62,5.25c3.74,0.26,7.51-0.99,10.27-3.55c2.77-2.57,4.31-6.21,4.68-9.94c0.39-3.92-0.4-8.29-2.65-11.58
			c-0.3-0.43-0.62-0.84-0.96-1.23c-0.15-0.12-0.29-0.24-0.45-0.35c0.87,1.4,1.41,3,1.62,4.65c0.33,2.55-0.07,5.18-0.92,7.59
			c-0.85,2.41-2.16,4.68-3.9,6.55c-1.56,1.67-3.55,3.06-5.81,3.54c-2.35,0.5-4.71-0.1-6.67-1.46
			C254.32,69.55,254.37,69.29,254.58,69.21z"/>
		<path class="st4" d="M302.58,46.47c-2.01-8.68-5.53-16.86-10.27-24.39c-4.87-7.74-10.86-14.78-18.84-19.43
			c-15.47-9-34.73-9.86-51.76-5.41c-15.01,3.92-28.8,12.15-38.84,23.96c0.97-0.9,1.95-1.78,2.97-2.63
			c5.04-4.19,10.65-7.64,16.6-10.37c7.37-3.39,15.24-5.65,23.31-6.51c7.93-0.85,16.15-0.44,23.92,1.37
			c6.17,1.44,12.09,3.98,17.42,7.4c5.34,3.42,10.12,7.71,14.06,12.67c3.92,4.92,7.02,10.49,9.03,16.45
			c2.01,5.94,2.87,12.2,2.62,18.47c-0.24,5.79-1.32,11.58-3.33,17.03c-1.94,5.26-4.75,10.24-8.6,14.33c-3.82,4.06-8.63,7.11-14,8.64
			c-5.46,1.56-11.51,1.75-16.95,0.02c-4.76-1.52-8.93-4.5-11.99-8.44c-3.04-3.92-4.97-8.66-5.71-13.56
			c-0.78-5.15-0.29-10.47,1.45-15.38c0.84-2.36,1.93-4.75,3.42-6.79c1.27-1.74,2.84-3.27,4.47-4.66c2.93-2.49,6.3-4.76,9.94-6.2
			c-5.36,0.87-10.43,3.48-14.31,7.33c-5.14,5.09-8.5,11.67-9.61,18.81c-1.38,8.84,0.54,18.43,5.64,25.73
			c0.67,1.16,1.55,2.21,2.53,3.14c2.06,2.23,4.48,4.14,7.28,5.61c7.76,4.09,17.12,4.5,25.58,2.76c8.45-1.74,16.52-5.66,22.64-11.8
			c5.88-5.89,9.88-13.51,11.83-21.58C305.18,64.35,304.58,55.12,302.58,46.47z"/>
		<path class="st3" d="M262.73,43.04c-0.47-0.25-0.96-0.45-1.48-0.6c0,0-0.01,0-0.01,0c0.12,0.08,0.24,0.16,0.36,0.25
			C261.98,42.79,262.35,42.91,262.73,43.04z"/>
		<path class="st1" d="M195.31,150.7c-3.02-10.52-7.67-20.48-12.19-30.42c-4.48-9.85-8.97-19.8-11.75-30.29
			c-2.68-10.11-3.35-20.54-1.72-30.89c1.56-9.9,5.16-19.45,10.49-27.93c5.22-8.31,12.07-15.56,20.01-21.32
			c8.14-5.91,17.42-10.22,27.18-12.66c6.01-1.5,12.24-2.3,18.47-2.46c-8.12-0.44-16.34,0.48-24.1,2.51
			c-16.83,4.4-32.15,14.21-42.33,28.42c-5,6.98-8.65,14.84-10.79,23.15c-2.15,8.35-2.79,17.03-2.44,25.63
			c0.19,4.71,0.62,9.43,1.53,14.06c0.89,4.53,2.19,8.98,3.79,13.31c3.28,8.93,7.74,17.35,12.25,25.7
			c4.21,7.8,8.56,15.55,11.78,23.82C195.43,151.12,195.37,150.91,195.31,150.7z"/>
		<path class="st1" d="M197.8,51.07c-1.36,2.3-2.53,4.76-3.31,7.32c-0.94,3.07-1.43,6.25-1.52,9.45c-0.17,6.32,1.23,12.56,3.2,18.52
			c1.58,4.8,3.55,9.46,5.53,14.12c-0.56-2.17-1.05-4.36-1.48-6.56c-0.57-2.94-1.04-5.91-1.37-8.89c-0.34-3.03-0.56-6.07-0.63-9.11
			c-0.07-3.03,0.02-6.07,0.28-9.09c0.26-2.95,0.69-5.9,1.35-8.79c0.64-2.83,1.49-5.61,2.6-8.29c1.08-2.6,2.39-5.09,3.98-7.42
			c1.12-1.63,2.37-3.18,3.75-4.6c-0.65,0.47-1.29,0.95-1.92,1.45C204.12,42.49,200.51,46.5,197.8,51.07z"/>
	</g>
	<g>
		<path class="st5" d="M60.12,167.18c-1.02-0.7-2.23-0.83-3.42-0.7c-0.79-0.18-1.59-0.31-2.36-0.53c-1.34-0.37-2.76-0.43-4.15-0.36
			c-1.53,0.08-3.04,0.42-4.58,0.4c-0.57-0.01-1.1-0.07-1.65-0.21c-0.49-0.12-0.99-0.25-1.5-0.27c-0.93-0.02-1.68,0.55-1.66,1.54
			c0.02,0.93,0.7,1.84,1.52,2.23c1.05,0.5,2.26,0.34,3.38,0.27c0.07,0,0.15-0.01,0.22-0.02c-0.27,0.12-0.53,0.26-0.78,0.38
			c-0.89,0.42-1.76,0.88-2.59,1.42c-1.36,0.89-2.58,2.03-3.51,3.36c-0.83,1.18-1.58,2.76-1.16,4.24c0.15,0.54,0.53,1.03,1.12,1.09
			c0.62,0.07,1.21-0.31,1.65-0.72c0.76-0.71,1.19-1.69,1.92-2.43c0.18-0.19,0.38-0.36,0.59-0.52c-0.03,0.03-0.05,0.06-0.08,0.09
			c-0.59,0.62-1.15,1.26-1.59,2c-0.57,0.97-1.08,2.06-1.24,3.19c-0.15,1.05,0.18,2.28,1.39,2.48c1.17,0.19,1.96-1.09,2.42-1.96
			c0.32-0.6,0.56-1.23,0.92-1.8c0.37-0.58,0.84-1.05,1.34-1.49c-0.13,0.2-0.25,0.4-0.35,0.59c-0.34,0.61-0.6,1.26-0.79,1.93
			c-0.36,1.21-0.62,2.6-0.42,3.86c0.15,0.89,0.82,2.16,1.91,1.7c0.87-0.37,1.37-1.44,1.73-2.25c0.32-0.71,0.56-1.44,0.87-2.16
			c0.15-0.35,0.31-0.69,0.5-1.01c-0.23,0.73-0.34,1.51-0.39,2.25c-0.07,0.89-0.06,1.93,0.36,2.74c0.49,0.92,1.55,0.91,2.22,0.18
			c0.75-0.83,0.99-2.04,1.34-3.07c0.51-1.51,1.01-3.18,2.1-4.39c0.94-1.04,2.18-1.67,3.36-2.39c1.04-0.64,2.07-1.38,2.79-2.39
			c0.75-1.05,1-2.31,0.76-3.58C62.06,169.48,61.32,168.01,60.12,167.18z"/>
		<path class="st6" d="M44.2,180.88c-0.43,0.87-0.8,2.01-1.64,2.58c-0.44,0.3-0.98,0.18-1.37-0.16c-0.37-0.33-0.48-0.83-0.47-1.31
			c0.02-1.04,0.47-2.09,0.94-3c0.35-0.68,0.78-1.31,1.27-1.89c0.27-0.32,0.57-0.63,0.84-0.96c0.1-0.12,0.19-0.24,0.28-0.36
			c0.34-0.23,0.69-0.46,1-0.73c0.53,1.09,1.27,2.08,2.19,2.9c-0.02,0.01-0.04,0.03-0.06,0.04c-0.02-0.12-0.13-0.19-0.31-0.08
			C45.75,178.63,44.79,179.68,44.2,180.88z"/>
		<path class="st6" d="M48.39,183.44c-0.33,0.86-0.66,1.77-1.23,2.51c-0.2,0.26-0.5,0.61-0.87,0.53c-0.49-0.11-0.77-0.71-0.89-1.14
			c-0.29-1.11-0.06-2.38,0.19-3.47c0.16-0.68,0.39-1.35,0.68-1.99c0.3-0.66,0.74-1.2,1.11-1.81c0.08,0.07,0.16,0.14,0.24,0.21
			c0.82,0.66,1.78,1.3,2.81,1.75C49.39,180.86,48.86,182.23,48.39,183.44z"/>
		<path class="st6" d="M61.39,173.81c-0.55,1.01-1.51,1.74-2.45,2.35c-1,0.64-2.07,1.17-3,1.93c-0.96,0.78-1.68,1.75-2.17,2.88
			c-0.54,1.25-0.96,2.55-1.39,3.84c-0.2,0.61-0.72,2.3-1.67,1.78c-0.78-0.43-0.76-1.84-0.75-2.6c0.01-0.64,0.09-1.28,0.22-1.91
			c0.13-0.65,0.3-1.34,0.61-1.93c0.4,0.15,0.8,0.27,1.21,0.35c-0.59-0.17-1.16-0.45-1.68-0.76c-0.86-0.51-1.65-1.13-2.38-1.81
			c-0.42-0.39-0.81-0.81-1.17-1.25c-0.56-0.62-1.05-1.32-1.46-2.05c-0.28-0.39-0.56-0.78-0.83-1.17c0.11,0.41,0.25,0.81,0.41,1.2
			c-0.63,0.46-1.3,0.85-1.92,1.32c-0.64,0.49-1.12,1.08-1.57,1.74c-0.43,0.63-0.86,1.4-1.58,1.74c-0.53,0.25-1.07,0.1-1.35-0.42
			c-0.67-1.26,0.1-2.9,0.81-3.97c0.79-1.18,1.82-2.22,2.98-3.05c0.81-0.58,1.68-1.07,2.56-1.52c0.4-0.21,0.81-0.4,1.22-0.61
			c0.24-0.12,0.5-0.27,0.77-0.37c0.59,0.02,1.16,0.18,1.39,0.75c0.2,0.52,0.35,1.06,0.58,1.57c0.25,0.57,0.56,1.12,0.94,1.62
			c0.39,0.52,0.85,0.96,1.38,1.31c-0.39-0.4-0.73-0.85-0.99-1.35c-0.27-0.51-0.49-1.05-0.68-1.6c-0.2-0.4-0.37-0.83-0.52-1.26
			c-0.23-0.69-0.4-1.26-1.18-1.44c-1.02-0.24-2.1-0.02-3.13,0c-1.05,0.02-2.15-0.16-2.8-1.07c-0.27-0.39-0.5-0.93-0.39-1.41
			c0.12-0.5,0.54-0.55,0.99-0.52c0.97,0.07,1.86,0.43,2.84,0.46c1.37,0.04,2.72-0.21,4.08-0.34c1.52-0.15,3.04-0.11,4.54,0.2
			c0.53,0.11,1.06,0.23,1.59,0.33c-0.02,0.04-0.04,0.07-0.04,0.11c0.34-0.01,0.68-0.02,1.03-0.02c0.48-0.08,0.97-0.13,1.45-0.07
			c0.46,0.06,0.87,0.23,1.23,0.48c0.1,0.05,0.21,0.1,0.31,0.17c1.04,0.64,1.75,1.78,2.13,2.92
			C61.93,171.48,61.98,172.74,61.39,173.81z"/>
		<path class="st6" d="M49.55,178.7c-0.78-0.56-1.47-1.22-2.12-1.93c-0.67-0.73-1.3-1.5-1.81-2.35c-0.43-0.72-0.56-1.53-0.81-2.31
			c-0.29,0.77-0.23,1.74-1.09,2.11c-0.29,0.12-0.57,0.2-0.82,0.39c-0.25,0.19-0.48,0.4-0.7,0.62c-0.38,0.39-0.69,0.78-0.98,1.24
			c-0.46,0.75-0.96,1.7-1.83,2.06c-0.62,0.25-1.29,0.11-1.63-0.42c0,0.28,0.04,0.56,0.12,0.84c0.15,0.54,0.53,1.03,1.12,1.09
			c0.62,0.07,1.21-0.31,1.65-0.72c0.76-0.71,1.19-1.69,1.92-2.43c0.18-0.19,0.38-0.36,0.59-0.52c-0.03,0.03-0.05,0.06-0.08,0.09
			c-0.59,0.62-1.15,1.26-1.59,2c-0.52,0.89-0.99,1.88-1.19,2.9c0.24-0.77,0.57-1.52,1.01-2.19c0.6-0.92,1.49-1.77,2.55-2.11
			c0.46-0.14,0.96-0.16,1.35,0.16c0.44,0.35,0.5,0.91,0.34,1.42c-0.17,0.55-0.54,1-0.79,1.51c-0.21,0.43-0.4,0.88-0.58,1.32
			c-0.15,0.38-0.3,0.78-0.4,1.18c0.1-0.17,0.2-0.34,0.28-0.49c0.32-0.6,0.56-1.23,0.92-1.8c0.37-0.58,0.84-1.05,1.34-1.49
			c-0.13,0.2-0.25,0.4-0.35,0.59c-0.34,0.61-0.6,1.26-0.79,1.93c-0.2,0.67-0.36,1.39-0.44,2.12c0.02-0.13,0.05-0.26,0.08-0.38
			c0.22-0.96,0.55-1.96,1.15-2.75c0.46-0.62,1.19-1.1,1.96-0.71c1.3,0.66,0.7,2.18,0.38,3.25c-0.22,0.73-0.38,1.5-0.51,2.25
			c-0.05,0.28-0.08,0.57-0.1,0.86c0.3-0.43,0.52-0.91,0.71-1.33c0.32-0.71,0.56-1.44,0.87-2.16c0.15-0.35,0.31-0.69,0.5-1.01
			c-0.01,0.02-0.01,0.04-0.02,0.06c0.2-0.44,0.35-0.96,0.7-1.3c0.18-0.18,0.41-0.26,0.67-0.27c0.15-0.01,0.29,0.01,0.43-0.01
			C50.89,179.58,50.2,179.16,49.55,178.7z"/>
		<path class="st6" d="M60.12,167.18c-1.02-0.7-2.23-0.83-3.42-0.7c-0.79-0.18-1.59-0.31-2.36-0.53c-1.34-0.37-2.76-0.43-4.15-0.36
			c-1.53,0.08-3.04,0.42-4.58,0.4c-0.57-0.01-1.1-0.07-1.65-0.21c-0.49-0.12-0.99-0.25-1.5-0.27c-0.67-0.02-1.24,0.28-1.5,0.81
			c0,0.01,0,0.02,0,0.03c0.41-0.14,0.85-0.15,1.3-0.06c0.85,0.18,1.62,0.59,2.45,0.81c0.81,0.22,1.65,0.29,2.48,0.33
			c1.45,0.07,2.91,0.01,4.34,0.29c1.31,0.26,2.51,0.83,3.54,1.69c1.82,1.51,3.61,4.12,2.18,6.47c-0.61,1.01-1.62,1.71-2.49,2.49
			c-0.44,0.39-0.86,0.8-1.18,1.28c-0.42,0.62-0.6,1.36-0.69,2.1c-0.16,1.3-0.13,2.59-0.54,3.84c-0.13,0.39-0.31,0.88-0.58,1.28
			c0.07-0.06,0.14-0.12,0.2-0.19c0.75-0.83,0.99-2.04,1.34-3.07c0.51-1.51,1.01-3.18,2.1-4.39c0.94-1.04,2.18-1.67,3.36-2.39
			c1.04-0.64,2.07-1.38,2.79-2.39c0.75-1.05,1-2.31,0.76-3.58C62.06,169.48,61.32,168.01,60.12,167.18z"/>
		<g>
			<path class="st0" d="M116.19,139.04c-1.04,0.93-2.22,1.73-3.4,2.47c-0.57,0.36-1.16,0.68-1.76,0.98c-0.21,0.1-0.42,0.2-0.63,0.29
				c1.46-1.45,2.7-3.14,3.79-4.87c0.87-1.37,1.62-2.81,2.29-4.29c0.5-1.95,1.15-3.87,1.58-5.85c0.89-4.12,0.46-8.7-1.5-12.47
				c-0.92-1.76-2.2-3.38-3.86-4.5c-1.55-1.03-3.33-1.58-5.11-2.07c-0.24-0.07-0.27-0.44-0.01-0.5c2.29-0.61,4.71-0.62,6.93,0.01
				c-2.99-1.98-6.74-2.8-10.28-2.49c-2.34,0.21-4.68,0.94-6.74,2.06c-1,0.54-1.92,1.22-2.85,1.88c-0.89,0.61-1.73,1.29-2.52,2.04
				c-3.91,3.68-6.57,8.38-9.14,13.03c-2.79,5.07-4.6,10.6-7.03,15.84c-1.24,2.68-2.61,5.3-4.06,7.87c-1.27,2.27-2.57,4.53-4.04,6.68
				c-2.67,3.89-5.94,7.64-10.06,10.03c-0.49,0.29-0.99,0.55-1.51,0.78c-0.12,0.05-0.18,0.14-0.19,0.22
				c-0.06,0.02-0.11,0.05-0.17,0.08c-0.11,0.07-0.14,0.23,0.01,0.27c0.72,0.19,1.56,0.26,2.34,0.19c-0.7,0.47-1.61,0.74-2.38,0.91
				c-0.12,0.03-0.4,0.22-0.23,0.36c0.82,0.69,1.84,1.09,2.88,1.31c0.43,0.09,0.88,0.15,1.33,0.19c-0.29,0.21-0.55,0.47-0.71,0.65
				c-0.59,0.61-1.23,1.37-1.52,2.18c-0.08,0.24,0.23,0.28,0.39,0.23c0.79-0.28,1.55-0.64,2.36-0.85c0.33-0.09,0.68-0.12,1.02-0.16
				c-0.3,0.35-0.54,0.78-0.72,1.17c-0.37,0.79-0.74,1.84-0.57,2.72c0.04,0.22,0.32,0.25,0.48,0.12c0.77-0.59,1.57-1.13,2.43-1.57
				c0.57-0.3,1.17-0.53,1.78-0.75c0.6-0.12,1.18-0.26,1.76-0.4c2.33-0.55,4.62-1.23,6.87-2.06c4.47-1.65,8.74-3.78,12.8-6.26
				c4.08-2.49,7.95-5.32,11.51-8.5c3.58-3.2,6.87-6.7,10.07-10.28c0.66-0.74,1.31-1.49,1.95-2.24c0.18-0.05,0.35-0.14,0.5-0.21
				c0.33-0.14,0.65-0.3,0.97-0.46c0.63-0.32,1.24-0.67,1.83-1.06c1.19-0.78,2.23-1.72,3.27-2.69
				C116.41,139.03,116.26,138.98,116.19,139.04z"/>
			<path class="st7" d="M108.25,144.37c-3.09,3.5-6.3,6.93-9.71,10.11c-6.81,6.35-14.81,11.55-23.44,15.06
				c-2.49,1.01-5.03,1.89-7.63,2.56c-0.54,0.14-1.09,0.28-1.65,0.41c-0.04-0.02-0.1-0.03-0.18-0.02c-0.4,0.07-0.8,0.19-1.19,0.32
				c-0.09,0.02-0.19,0.04-0.28,0.06c-0.36,0.16-0.71,0.33-1.06,0.51c-0.08,0.04-0.16,0.08-0.24,0.13c-0.05,0.02-0.09,0.05-0.14,0.07
				c0,0,0,0,0.01,0c-0.72,0.39-1.4,0.84-2.05,1.31c0.01-0.62,0.22-1.27,0.45-1.82c0.14-0.33,0.34-0.8,0.62-1.17
				c0.15-0.35,0.34-0.67,0.55-0.99c-0.04,0.01-0.08,0.03-0.12,0.04c-0.29,0.07-0.6,0.09-0.9,0.12c-0.4,0.04-0.79,0.11-1.18,0.22
				c-0.58,0.16-1.13,0.39-1.69,0.61c0.25-0.47,0.6-0.91,0.93-1.29c0.1-0.12,0.25-0.31,0.43-0.5c0-0.05,0.01-0.1,0.05-0.14
				c0.27-0.35,0.59-0.66,0.91-0.97c-1.5,0.02-3.11-0.21-4.33-1.06c0.82-0.23,1.61-0.56,2.32-1.03c0.14-0.24,0.26-0.49,0.38-0.74
				c-0.02,0-0.05,0-0.07,0c-0.5,0.07-0.99,0.12-1.49,0.12c-0.26,0-0.52-0.01-0.78-0.02c4.14-1.92,7.49-5.28,10.24-8.85
				c1.46-1.91,2.74-3.93,3.96-6c1.48-2.53,2.91-5.09,4.23-7.7c1.29-2.56,2.45-5.18,3.55-7.84c1.1-2.68,2.17-5.39,3.41-8.01
				c1.18-2.51,2.56-4.93,3.97-7.32c1.35-2.29,2.82-4.5,4.54-6.53c1.58-1.85,3.35-3.51,5.43-4.78c1.29-0.79,2.67-1.38,4.11-1.84
				c0.2-0.12,0.4-0.24,0.61-0.34c0.73-0.21,1.47-0.38,2.23-0.51c3.94-0.65,8.29,0.32,11.5,2.71c3.21,2.38,4.6,6.18,4.68,10.08
				c0.07,3.55-0.78,7.08-1.97,10.42c-0.14,0.73-0.34,1.44-0.61,2.13c-0.6,1.55-1.41,3-2.34,4.38c-0.05,0.1-0.1,0.2-0.15,0.3
				c-0.03,0.07-0.03,0.12,0.01,0.15c-0.11,0.2-0.22,0.4-0.34,0.6C112.17,139.83,110.21,142.16,108.25,144.37z"/>
			<path class="st7" d="M60.75,164.37c2.18-1.36,4.04-3.22,5.71-5.15c4.32-5,7.58-10.85,10.46-16.77
				c3.54-7.25,6.51-14.83,10.59-21.81c2.98-5.1,7.48-9.45,12.89-11.9c2.61-1.18,5.42-1.91,8.28-2.05c-1.87-0.39-3.82-0.45-5.67-0.14
				c-0.75,0.12-1.5,0.3-2.23,0.51c-0.21,0.11-0.41,0.22-0.61,0.34c-1.43,0.46-2.81,1.05-4.11,1.84c-2.08,1.27-3.85,2.93-5.43,4.78
				c-1.73,2.02-3.2,4.24-4.54,6.53c-1.41,2.39-2.79,4.81-3.97,7.32c-1.24,2.62-2.3,5.33-3.41,8.01c-1.09,2.65-2.25,5.27-3.55,7.84
				c-1.32,2.62-2.74,5.18-4.23,7.7c-1.22,2.07-2.49,4.09-3.96,6c-2.48,3.23-5.45,6.27-9.05,8.25
				C58.93,165.38,59.88,164.92,60.75,164.37z"/>
			<path class="st3" d="M119.2,119.34c-0.07-3.9-1.47-7.7-4.68-10.08c-3.22-2.39-7.56-3.35-11.5-2.71c-0.75,0.12-1.5,0.3-2.23,0.51
				c-0.21,0.11-0.41,0.22-0.61,0.34c-1.43,0.46-2.81,1.05-4.11,1.84c-2.08,1.27-3.85,2.93-5.43,4.78c-0.04,0.05-0.09,0.11-0.13,0.16
				c2.12-1.72,4.51-3.13,7.08-4.06c3.47-1.25,7.26-1.53,10.82-0.51c0.27,0.08,0.25,0.53-0.05,0.52c-1.91-0.08-3.84,0.46-5.58,1.29
				c2.38-0.25,4.78,0.35,6.62,2.01c0.16,0.15,0.05,0.45-0.17,0.45c-1.48-0.01-2.91,0.28-4.34,0.61c0.04,0.01,0.07,0.02,0.11,0.03
				c3.31,1.21,3.67,5.39,3.22,8.38c-0.3,1.98-1.11,3.84-2.05,5.6c-1.29,2.44-2.92,4.69-4.67,6.81c-1.78,2.16-3.72,4.19-5.68,6.18
				c-1.85,1.87-3.71,3.73-5.58,5.58c-3.81,3.76-7.72,7.44-11.89,10.81c-4.08,3.3-8.41,6.34-13.11,8.68
				c-0.22,0.11-0.51-0.11-0.37-0.35c0.5-0.81,0.93-1.66,1.34-2.52c-1.51,1.3-3.34,2.19-5.18,2.94c-0.25,0.1-0.43-0.25-0.26-0.43
				c0.45-0.48,0.88-0.97,1.31-1.45c-0.18,0.09-0.36,0.18-0.55,0.26c-1.33,0.6-2.75,1.07-4.2,1.26c0.07,0,0.15,0.01,0.22,0.01
				c0.5,0,0.99-0.05,1.49-0.12c0.02,0,0.05,0,0.07,0c-0.11,0.25-0.24,0.5-0.38,0.74c-0.7,0.47-1.5,0.81-2.32,1.03
				c1.22,0.85,2.83,1.08,4.33,1.06c-0.32,0.31-0.63,0.62-0.91,0.97c-0.03,0.04-0.05,0.09-0.05,0.14c-0.17,0.19-0.32,0.38-0.43,0.5
				c-0.32,0.38-0.68,0.82-0.93,1.29c0.56-0.22,1.11-0.45,1.69-0.61c0.39-0.11,0.78-0.19,1.18-0.22c0.3-0.03,0.6-0.05,0.9-0.12
				c0.04-0.02,0.08-0.03,0.12-0.04c-0.21,0.31-0.4,0.64-0.55,0.99c-0.28,0.37-0.49,0.84-0.62,1.17c-0.22,0.55-0.44,1.2-0.45,1.82
				c0.65-0.47,1.33-0.92,2.05-1.31c0,0,0,0-0.01,0c0.05-0.03,0.09-0.05,0.14-0.07c0.08-0.04,0.16-0.09,0.24-0.13
				c0.35-0.18,0.7-0.36,1.06-0.51c0.09-0.02,0.19-0.04,0.28-0.06c0.39-0.13,0.79-0.25,1.19-0.32c0.08-0.01,0.13,0,0.18,0.02
				c0.55-0.13,1.1-0.27,1.65-0.41c2.6-0.66,5.14-1.55,7.63-2.56c8.63-3.51,16.63-8.71,23.44-15.06c3.42-3.18,6.62-6.61,9.71-10.11
				c1.95-2.21,3.92-4.54,5.55-7.06c0.11-0.2,0.23-0.4,0.34-0.6c-0.03-0.03-0.04-0.08-0.01-0.15c0.05-0.1,0.1-0.2,0.15-0.3
				c0.93-1.38,1.74-2.83,2.34-4.38c0.27-0.69,0.47-1.4,0.61-2.13C118.42,126.42,119.27,122.89,119.2,119.34z"/>
		</g>
	</g>
	<g>
		<g>
			<g>
				<path class="st5" d="M187.82,232.65c-0.65-2-2.81-3.16-4.58-4c-1-0.47-2.02-0.87-3.04-1.3c-1.1-0.46-2.28-0.9-3.26-1.59
					c-0.51-0.36-0.86-0.8-1.14-1.35c-0.17-0.34-0.34-0.68-0.55-0.99c0-0.02,0.01-0.04,0.01-0.06c0.01-0.07-0.03-0.19-0.1-0.23
					c-0.06-0.03-0.12-0.06-0.19-0.08c-0.01-0.01-0.02-0.03-0.03-0.04c-0.07-0.08-0.18-0.09-0.29-0.06c-0.96-0.25-2.04,0-3.01,0.07
					c-1.66,0.13-3.35,0.15-5.02,0.18c-1.75,0.03-3.49,0.04-5.24,0.11c-1.75,0.08-3.5,0.17-5.25,0.17c-1.21,0.01-2.41,0.13-3.62,0.07
					c-0.1-0.01-0.24,0.12-0.17,0.22c0.01,0.02,0.03,0.04,0.05,0.06c-0.03,0.03-0.05,0.06-0.05,0.09c-0.11,1.36-0.48,2.8-1.49,3.77
					c-1.16,1.12-2.88,1.32-4.41,1.43c-2.04,0.14-4.09-0.02-6.13-0.17c-2.11-0.15-4.22-0.33-6.31-0.67
					c-2.09-0.35-4.15-0.83-6.18-1.42c-1.98-0.58-3.89-1.36-5.8-2.12c-3.02-1.2-6.23-2.47-9.53-2.22c-1.3,0.1-2.64,0.32-3.83,0.88
					c-1.05,0.5-1.99,1.31-1.92,2.56c0,0.05,0.02,0.09,0.05,0.12l-0.02,0.01c-0.04,0.02-0.07,0.05-0.09,0.09
					c-0.01,0.01-0.01,0.02-0.01,0.02c-1.3,0.3-2.5,0.9-3.55,1.87c-1.54,1.43-2.57,3.45-2.76,5.55c-0.18,1.98,0.47,3.92,2.04,5.19
					c1.51,1.23,3.52,1.73,5.42,1.96c5.73,0.7,11.6-0.03,17.27-0.87c2.91-0.43,5.81-0.93,8.73-1.34c3.03-0.43,6.07-0.76,9.11-1.01
					c6.08-0.51,12.19-0.73,18.29-0.75c3.01-0.01,6.01,0.06,9.01,0.28c2.95,0.22,5.9,0.49,8.86,0.37c2.17-0.08,4.49-0.28,6.49-1.21
					C186.99,235.61,188.37,234.35,187.82,232.65z"/>
				<path class="st6" d="M186.74,234.76c-0.53,0.59-1.31,0.94-2.04,1.2c-0.87,0.31-1.77,0.48-2.68,0.61
					c-5.7,0.78-11.45-0.38-17.16-0.42c-5.88-0.04-11.76,0.08-17.62,0.45c-5.8,0.37-11.55,1.02-17.29,1.92
					c-5.63,0.89-11.28,1.84-17,1.86c-2.38,0-4.87-0.03-7.17-0.7c-1.76-0.51-3.48-1.5-4.26-3.24c-1.74-3.9,1.33-8.94,5.39-9.67
					c1.36-0.24,2.77-0.11,4.12,0.12c1.36,0.23,2.72,0.51,4.07,0.8c2.83,0.62,5.61,1.43,8.43,2.07c2.78,0.63,5.62,0.88,8.46,1.02
					c1.38,0.07,2.76,0.1,4.14,0.18c1.37,0.08,2.75,0.19,4.12,0.2c1.29,0.01,2.58-0.04,3.86-0.23c0.12-0.02,0.17-0.21,0.01-0.19
					c-2.83,0.34-5.7-0.1-8.53-0.28c-2.94-0.18-5.89-0.29-8.8-0.74c-2.98-0.46-5.87-1.32-8.79-2.06c-1.44-0.37-2.88-0.68-4.34-0.97
					c-1.34-0.27-2.68-0.56-4.05-0.67c-0.85-0.07-1.69-0.03-2.49,0.11c-0.01-0.01-0.02-0.01-0.03-0.02c0.1-0.05,0.18-0.14,0.18-0.24
					c0.02-1.07,0.95-1.7,1.84-2.06c1.09-0.44,2.29-0.62,3.46-0.69c3.43-0.19,6.77,1.3,9.89,2.55c1.93,0.77,3.86,1.49,5.86,2.04
					c2.01,0.56,4.05,0.99,6.11,1.3c2.06,0.31,4.14,0.46,6.22,0.61c2.02,0.14,4.05,0.26,6.07,0.07c1.64-0.15,3.34-0.53,4.54-1.74
					c1.05-1.05,1.37-2.5,1.33-3.94c0.25,0.13,0.59,0.14,0.86,0.16c0.58,0.04,1.17,0.01,1.76-0.01c1.57-0.05,3.15-0.03,4.72-0.1
					c3.46-0.15,6.92-0.15,10.37-0.28c0.72-0.03,1.44-0.08,2.16-0.15c0.61-0.06,1.36-0.16,1.96,0.07c-0.01,0.11-0.02,0.22-0.03,0.33
					c-0.02,0.28,0.27,0.27,0.47,0.17c0.09,0.19,0.18,0.38,0.28,0.58c0.24,0.5,0.54,0.93,0.97,1.29c0.92,0.76,2.09,1.19,3.18,1.67
					c1.92,0.84,3.96,1.51,5.68,2.73C186.19,231.32,188.08,233.27,186.74,234.76z"/>
			</g>
			<path class="st6" d="M109.37,226.98c2.57,0.15,5.09,0.74,7.58,1.35c2.57,0.63,5.14,1.21,7.75,1.67c5.92,1.05,12,1.75,18.02,1.2
				c-1.07-0.23-2.18-0.26-3.27-0.27c-0.75-0.01-1.51,0-2.26-0.03c-0.88-0.03-1.76-0.16-2.64-0.25c-3-0.3-6-0.61-8.97-1.11
				c-2.34-0.39-4.95-0.8-6.91-2.23c-0.53-0.39-1.31-0.97-1.26-1.72c0.04-0.6,0.64-0.94,1.14-1.13c0.55-0.21,1.14-0.33,1.73-0.4
				c-2.5-0.95-5.11-1.74-7.78-1.53c-1.3,0.1-2.64,0.32-3.83,0.88c-1.05,0.5-1.99,1.31-1.92,2.56c0,0.05,0.02,0.09,0.05,0.12
				l-0.02,0.01c-0.04,0.02-0.07,0.05-0.09,0.09c-0.01,0.01-0.01,0.02-0.01,0.02c-1.16,0.27-2.24,0.78-3.21,1.57
				C105.32,227.04,107.37,226.86,109.37,226.98z"/>
			<path class="st6" d="M187.82,232.65c-0.65-2-2.81-3.16-4.58-4c-1-0.47-2.02-0.87-3.04-1.3c-1.1-0.46-2.28-0.9-3.26-1.59
				c-0.51-0.36-0.86-0.8-1.14-1.35c-0.17-0.34-0.34-0.68-0.55-0.99c0-0.02,0.01-0.04,0.01-0.06c0.01-0.07-0.03-0.19-0.1-0.23
				c-0.06-0.03-0.12-0.06-0.19-0.08c-0.01-0.01-0.02-0.03-0.03-0.04c-0.07-0.08-0.18-0.09-0.29-0.06c-0.96-0.25-2.04,0-3.01,0.07
				c-1.66,0.13-3.35,0.15-5.02,0.18c-1.75,0.03-3.49,0.04-5.24,0.11c-1.75,0.08-3.5,0.17-5.25,0.17c-1.21,0.01-2.41,0.13-3.62,0.07
				c-0.1-0.01-0.24,0.12-0.17,0.22c0.01,0.02,0.03,0.04,0.05,0.06c-0.03,0.03-0.05,0.06-0.05,0.09c-0.11,1.3-0.45,2.65-1.36,3.62
				c0.46,0.13,0.92,0.25,1.38,0.36c3.26,0.78,6.6,1.13,9.93,1.44c3.27,0.31,6.67,0.53,9.88-0.33c0.18-0.05,0.4,0.13,0.32,0.32
				c-0.31,0.76-0.78,1.44-1.38,1.99c-1.28,1.18-3,1.82-4.68,2.2c-1.99,0.45-4.05,0.52-6.09,0.59c-5.49,0.2-10.99,0.03-16.48,0.42
				c-2.11,0.15-4.14,0.41-6.23,0.74c-2.09,0.32-4.17,0.65-6.26,0.95c-2.49,0.36-4.98,0.68-7.48,0.92c-2.56,0.25-5.13,0.42-7.7,0.43
				c-2.33,0.01-4.67-0.1-6.97-0.52c-1.8-0.33-3.66-0.85-5.19-1.91c-1.31-0.9-2.26-2.2-2.53-3.79c-0.06-0.36-0.09-0.72-0.09-1.08
				c-0.57,1.03-0.94,2.18-1.05,3.35c-0.18,1.98,0.47,3.92,2.04,5.19c1.51,1.23,3.52,1.73,5.42,1.96c5.73,0.7,11.6-0.03,17.27-0.87
				c2.91-0.43,5.81-0.93,8.73-1.34c3.03-0.43,6.07-0.76,9.11-1.01c6.08-0.51,12.19-0.73,18.29-0.75c3.01-0.01,6.01,0.06,9.01,0.28
				c2.95,0.22,5.9,0.49,8.86,0.37c2.17-0.08,4.49-0.28,6.49-1.21C186.99,235.61,188.37,234.35,187.82,232.65z"/>
		</g>
		<path class="st0" d="M205.78,179.98c-0.21-1.65-0.47-3.3-0.74-4.94c-0.27-1.62-0.5-3.26-0.83-4.88c-0.15-0.75-0.35-1.5-0.57-2.24
			c-0.01-0.03-0.01-0.07-0.02-0.1c-0.01-0.01-0.02-0.02-0.02-0.03c0,0,0-0.01-0.01-0.01c-0.21-0.69-0.45-1.38-0.71-2.06
			c-0.29-0.96-0.54-1.94-0.81-2.91c-0.49-1.02-0.99-2.03-1.51-3.03c-2.68-5.15-5.85-10.06-9.55-14.54
			c-7.88-9.54-18.16-16.83-29.15-22.39c-5.65-2.86-11.51-5.25-17.49-7.33c-6.53-2.27-13.08-4.42-19.52-6.95
			c-3.14-1.23-6.29-2.43-9.35-3.86c-3.05-1.42-5.91-3.16-8.76-4.94c-2.88-1.81-5.71-3.7-8.44-5.72c-2.67-1.98-5.39-3.77-7.66-6.24
			c-1.14-1.24-2.22-2.52-3.33-3.78c-0.01-0.01-0.02-0.01-0.03-0.02c-0.52-0.98-1.08-1.93-1.9-2.73c-0.88-0.85-1.97-1.28-3.19-1.35
			c-2.6-0.13-5.22,1.11-7.45,2.32c-2.65,1.43-5.19,3.08-7.52,4.99c-1.36,1.11-2.65,2.31-3.85,3.59c-1.12,1.19-2.24,2.41-3.14,3.78
			c-0.85,1.3-1.74,3.03-1.4,4.63c0.13,0.62,0.46,1.17,0.83,1.68c0.46,0.64,0.98,1.24,1.46,1.85c0.01,0.02,0.03,0.03,0.05,0.04
			c0.71,1.56,1.24,3.21,1.7,4.85c0.68,2.41,1.15,4.87,1.58,7.34c0.46,2.67,0.87,5.35,1.06,8.05c0.21,2.95,0.24,5.92,0.24,8.88
			c0,5.54-0.13,11.08,0.72,16.58c0.76,4.88,2.32,9.57,4.99,13.75c1.99,3.11,4.66,6.05,8.01,7.73c1.04,1.97,2.17,3.9,3.38,5.77
			c2.67,4.11,5.73,7.97,9.14,11.48c3.37,3.47,7.09,6.63,11.2,9.2c1.8,1.13,3.68,2.14,5.62,3c0.01,0.11,0.03,0.22,0.04,0.33
			c0.71,5.01,2.53,9.86,5.51,13.96c2.99,4.11,7.05,7.35,11.58,9.62c2.93,1.47,6.01,2.59,9.18,3.39c1.4,0.38,2.82,0.68,4.25,0.94
			c3.73,0.68,7.51,1.04,11.29,1.21c4.25,0.19,8.49,0.13,12.74-0.03c2.18-0.08,4.36-0.19,6.55-0.3c2.12-0.11,4.24-0.26,6.34-0.59
			c1.03-0.16,2.04-0.41,3.05-0.62c0.83-0.17,1.67-0.32,2.49-0.54c1.45-0.37,3.12-0.8,4.24-1.85c1.14-0.55,2.24-1.17,3.3-1.85
			c4.37-2.81,8.02-6.74,10.64-11.21c2.58-4.4,4.19-9.3,5.13-14.29c0.49-2.6,0.81-5.23,1-7.86
			C206.38,186.51,206.19,183.23,205.78,179.98z"/>
		<path class="st7" d="M204.87,195.26c-0.77,4.97-2.09,9.91-4.37,14.41c-2.29,4.53-5.53,8.52-9.57,11.6
			c-2.07,1.58-4.36,2.9-6.78,3.88c-0.18,0.07-0.36,0.14-0.54,0.21c-1.3,0.59-2.67,1.03-4.06,1.36c-1.08,0.26-2.2,0.53-3.32,0.65
			c-3.79,0.61-7.68,0.66-11.5,0.82c-2.09,0.09-4.19,0.16-6.3,0.19c-1.24,0.09-2.48,0.14-3.72,0.14c-3.36,0.01-6.75-0.28-10.06-0.94
			c-4.78-0.38-9.51-1.34-14-3.02c-4.94-1.85-9.59-4.58-13.23-8.44c-3.36-3.56-5.74-7.92-7.01-12.65
			c-1.49-5.55-1.52-11.48-0.33-17.09c1.23-5.81,3.72-11.31,7.13-16.15c3.26-4.63,7.37-8.65,12.06-11.8
			c4.59-3.08,9.75-5.31,15.14-6.52c5.16-1.15,10.56-1.46,15.77-0.48c5.01,0.95,10.07,2.89,14.02,6.18c0.93,0.77,1.79,1.6,2.55,2.54
			c0.11,0.13,0.38-0.06,0.28-0.2c-3.14-4.13-7.9-6.68-12.78-8.18c-2.45-0.75-4.99-1.25-7.55-1.47c-2.69-0.23-5.41-0.1-8.08,0.23
			c-5.58,0.69-11.03,2.45-15.97,5.13c-4.99,2.71-9.47,6.33-13.19,10.63c-3.95,4.58-7.05,9.91-8.95,15.66
			c-1.76,5.34-2.45,11.02-1.85,16.61c-1.26-0.59-2.49-1.23-3.68-1.93c-4.12-2.41-7.88-5.42-11.27-8.76
			c-3.44-3.39-6.53-7.14-9.29-11.1c-1.44-2.07-2.79-4.19-4.07-6.35c0.34,0.14,0.67,0.27,1.02,0.38c0.36,0.12,0.74,0.21,1.11,0.29
			c-2.04-0.87-3.94-2.06-5.54-3.61c-1.59-1.3-2.99-2.86-4.18-4.54c-2.82-3.99-4.56-8.58-5.44-13.37c-1-5.43-0.95-10.94-0.94-16.43
			c0.01-2.94,0-5.87-0.16-8.81c-0.15-2.76-0.48-5.49-0.94-8.22c-0.76-4.58-1.68-9.29-3.87-13.42c0.02-0.05,0.03-0.1,0-0.14
			c-0.2-0.42-0.48-0.81-0.76-1.19c-0.13-0.22-0.26-0.44-0.4-0.65c-0.02-0.03-0.05-0.03-0.09-0.02c-0.27-0.39-0.52-0.79-0.69-1.23
			c-0.51-1.36,0.13-2.87,0.8-4.05c0.77-1.36,1.82-2.54,2.87-3.68c1.12-1.22,2.29-2.38,3.54-3.46c2.26-1.94,4.72-3.61,7.3-5.09
			c2.13-1.22,4.47-2.42,6.94-2.7c1.28-0.14,2.61,0.04,3.65,0.85c0.68,0.53,1.22,1.21,1.7,1.91c0.49,0.72,0.99,1.43,1.46,2.16
			c0.04,0.07,0.16-0.02,0.15-0.09c1.71,2.19,3.42,4.38,5.62,6.12c2.52,1.99,5.18,3.87,7.82,5.69c5.43,3.74,11.06,7.14,17.15,9.68
			c6.21,2.59,12.52,4.92,18.89,7.08c6.19,2.1,12.36,4.2,18.34,6.87c11.35,5.07,22.28,11.79,30.93,20.8
			c5.74,5.97,10.32,12.87,14.01,20.24c0.25,0.66,0.51,1.31,0.77,1.96c0.55,1.38,1.08,2.79,1.51,4.21c0.44,1.48,0.72,2.99,0.98,4.51
			c0.26,1.61,0.54,3.21,0.78,4.82c0.49,3.19,0.87,6.41,0.86,9.64C205.61,189.71,205.29,192.51,204.87,195.26z"/>
		<path class="st7" d="M120.96,218.58c-3.29-4.27-5.32-9.34-5.85-14.68c-0.23,1.28-0.32,2.57-0.32,3.88c0,0.3-0.43,0.35-0.51,0.07
			c-1.29-4.17-1.05-8.48-1.02-12.79c-0.72,1.04-1.16,2.24-1.49,3.46c-0.08,0.29-0.51,0.22-0.51-0.07c-0.01-0.75,0-1.51,0.03-2.26
			c0.2-6.17,1.39-12.33,3.63-18.08c2.24-5.76,5.55-11.16,10.03-15.45c2.33-2.23,4.94-4.13,7.81-5.61c3.28-1.7,6.79-2.97,10.39-3.81
			c3.52-0.83,7.19-1.32,10.82-1.27c2.72,0.04,5.46,0.27,8.15,0.67c2.26,0.34,4.51,0.82,6.67,1.55c-2.72-1.3-5.66-2.19-8.57-2.74
			c-5.21-0.98-10.62-0.68-15.77,0.48c-5.4,1.21-10.55,3.44-15.14,6.52c-4.7,3.15-8.81,7.18-12.06,11.8
			c-3.41,4.85-5.9,10.35-7.13,16.15c-1.19,5.61-1.16,11.53,0.33,17.09c1.26,4.72,3.65,9.09,7.01,12.65
			c1.52,1.61,3.21,3.02,5.03,4.25C121.95,219.8,121.44,219.2,120.96,218.58z"/>
		<path class="st3" d="M204.75,177.29c-0.25-1.61-0.52-3.21-0.78-4.82c-0.25-1.53-0.53-3.03-0.98-4.51
			c-0.43-1.43-0.95-2.83-1.51-4.21c-0.26-0.65-0.52-1.31-0.77-1.96c-3.69-7.37-8.27-14.27-14.01-20.24
			c-8.65-9.01-19.58-15.73-30.93-20.8c-5.97-2.67-12.15-4.76-18.34-6.87c-6.37-2.16-12.68-4.5-18.89-7.08
			c-6.09-2.54-11.72-5.95-17.15-9.68c-2.65-1.82-5.3-3.7-7.82-5.69c-2.2-1.74-3.91-3.92-5.62-6.12c0.02,0.07-0.1,0.16-0.15,0.09
			c-0.48-0.73-0.97-1.44-1.46-2.16c-0.48-0.7-1.03-1.38-1.7-1.91c-1.04-0.81-2.37-0.99-3.65-0.85c-2.47,0.28-4.81,1.47-6.94,2.7
			c-2.58,1.48-5.05,3.15-7.3,5.09c-1.26,1.08-2.42,2.24-3.54,3.46c-1.05,1.15-2.1,2.32-2.87,3.68c-0.67,1.19-1.31,2.69-0.8,4.05
			c0.17,0.44,0.41,0.84,0.69,1.23c0.03-0.01,0.07-0.01,0.09,0.02c0.14,0.21,0.27,0.43,0.4,0.65c0.28,0.38,0.55,0.77,0.76,1.19
			c0.02,0.05,0.02,0.1,0,0.14c2.16,4.08,3.08,8.72,3.84,13.24c0.08,0.01,0.16,0.01,0.24,0.02c2.75,0.14,5.52-0.44,8.16-1.18
			c2.56-0.72,5.06-1.67,7.5-2.72c2.76-1.19,5.43-2.62,8.23-3.73c3.83-1.51,7.88-2.15,11.83-0.72c0.32,0.11,0.19,0.57-0.14,0.5
			c-1.96-0.4-3.97,0-5.76,0.85c-3.57,1.7-6.38,4.9-8.33,8.28c-1.69,2.94-3.1,6.61-2.6,10.07c3.4-2.89,6.82-6.13,11.26-7.23
			c2.16-0.54,4.46-0.57,6.64-0.18c1.71,0.31,3.35,1.07,4.49,2.42c2.19,2.59,2.23,6.37,1.96,9.57c-0.44,5.25-1.8,10.44-3.57,15.4
			c-0.9,2.51-1.88,4.96-3.19,7.28c-1.22,2.17-2.58,4.27-3.54,6.57c1.15-0.4,2.19-1.05,3.14-1.81c4.25-3.39,7.03-8.36,9.96-12.84
			c0.08-0.12,0.23-0.17,0.36-0.09c2.12,1.24,4.4,2.17,6.76,2.83c8.51,2.4,17.68,1.77,26.34,0.58c0.33-0.04,0.47,0.46,0.14,0.5
			c-2.2,0.3-4.35,0.91-6.4,1.75c-3.95,1.62-7.56,3.95-10.92,6.62c1.55-1.1,3.16-2.11,4.83-3.02c4.94-2.68,10.39-4.44,15.97-5.13
			c2.68-0.33,5.4-0.46,8.08-0.23c2.56,0.22,5.09,0.72,7.55,1.47c4.88,1.5,9.64,4.05,12.78,8.18c0.1,0.13-0.18,0.33-0.28,0.2
			c-0.76-0.94-1.62-1.77-2.55-2.54c-3.95-3.29-9.01-5.23-14.02-6.18c-5.21-0.98-10.62-0.68-15.77,0.48
			c-5.4,1.21-10.55,3.44-15.14,6.52c-0.65,0.44-1.29,0.9-1.93,1.37c0.46-0.22,0.92-0.43,1.39-0.63c3.63-1.55,7.47-2.6,11.37-3.17
			c1.79-0.38,3.6-0.61,5.44-0.65c1.21-0.03,2.41,0.03,3.61,0.16c3.65,0.15,7.28,0.78,10.69,2.11c4.91,1.91,9.19,5.17,12.34,9.4
			c3.22,4.33,5.16,9.52,5.89,14.85c0.04,0.27-0.33,0.49-0.48,0.2c-0.31-0.6-0.73-1.11-1.2-1.57c0.92,1.7,1.33,3.7,1.54,5.6
			c0.03,0.23-0.3,0.34-0.45,0.18c-0.81-0.91-1.6-1.84-2.43-2.73c1.31,2.49,1.99,5.37,1.88,8.14c-0.01,0.25-0.36,0.37-0.49,0.13
			c-0.79-1.46-1.56-2.94-2.53-4.28c0.05,0.14,0.1,0.27,0.14,0.41c1.65,5.26,0.63,10.85-1.97,15.62c-2.62,4.8-6.68,8.84-11.3,11.72
			c-2.55,1.59-5.32,2.87-8.12,3.96c-2.81,1.1-5.7,1.97-8.66,2.55c-5.76,1.14-11.72,1.2-17.48,0c-1.05-0.22-2.08-0.48-3.1-0.78
			c2.27,1.43,4.7,2.6,7.21,3.54c4.49,1.68,9.22,2.64,14,3.02c3.31,0.66,6.69,0.95,10.06,0.94c1.24,0,2.48-0.05,3.72-0.14
			c2.1-0.03,4.2-0.11,6.3-0.19c3.82-0.16,7.71-0.21,11.5-0.82c1.12-0.12,2.23-0.39,3.32-0.65c1.39-0.33,2.76-0.77,4.06-1.36
			c0.18-0.07,0.36-0.14,0.54-0.21c2.42-0.98,4.7-2.29,6.78-3.88c4.04-3.08,7.28-7.07,9.57-11.6c2.27-4.5,3.6-9.44,4.37-14.41
			c0.42-2.75,0.74-5.55,0.74-8.33C205.62,183.69,205.24,180.48,204.75,177.29z"/>
		<path class="st8" d="M204.75,177.29c-0.25-1.61-0.52-3.21-0.78-4.82c-0.25-1.53-0.53-3.03-0.98-4.51
			c-0.43-1.43-0.95-2.83-1.51-4.21c-0.26-0.65-0.52-1.31-0.77-1.96c-3.69-7.37-8.27-14.27-14.01-20.24
			c-8.65-9.01-19.58-15.73-30.93-20.8c-5.97-2.67-12.15-4.76-18.34-6.87c-6.37-2.16-12.68-4.5-18.89-7.08
			c-6.09-2.54-11.72-5.95-17.15-9.68c-2.65-1.82-5.3-3.7-7.82-5.69c-2.2-1.74-3.91-3.92-5.62-6.12c0.02,0.07-0.1,0.16-0.15,0.09
			c-0.48-0.73-0.97-1.44-1.46-2.16c-0.48-0.7-1.03-1.38-1.7-1.91c-0.84-0.66-1.87-0.9-2.91-0.89c1.92,3.41,4.43,6.53,6.95,9.43
			c1.86,2.14,3.74,4.25,5.87,6.13c2.28,2.03,4.74,3.84,7.27,5.52c10.69,7.1,22.59,11.84,34.46,16.55
			c10.7,4.25,21.38,8.69,31.24,14.7c8.4,5.13,16.3,11.4,22.19,19.35c5.94,8.03,9.27,17.58,9.21,27.59c0,0.31-0.41,0.33-0.51,0.07
			c-1.52-4.01-2.55-8.51-5.15-12c1.03,2.48,1.65,5.14,2.21,7.77c0.06,0.28-0.34,0.48-0.48,0.2c-1.56-3.17-2.42-6.73-4.47-9.64
			c0.37,1.87,0.75,3.73,1.29,5.56c0.08,0.28-0.34,0.46-0.48,0.2c-1.18-2.24-2.58-4.36-4.25-6.26c-3.77-4.31-8.61-7.22-13.8-9.39
			c1.41,1.07,2.7,2.31,3.79,3.74c0.1,0.13-0.18,0.33-0.28,0.2c-0.76-0.94-1.62-1.77-2.55-2.54c-1.06-0.88-2.2-1.66-3.4-2.36
			c-0.71-0.26-1.42-0.51-2.14-0.75c3.13,1.94,5.72,4.74,7.97,7.62c2.48,3.18,4.7,6.61,6.63,10.15c4.33,7.93,7.25,17.15,6.46,26.27
			c-0.7,8.06-4.49,15.36-10.27,20.96c-4.17,4.04-9.12,6.84-14.49,8.67c3.74-0.15,7.54-0.22,11.24-0.81
			c1.12-0.12,2.23-0.39,3.32-0.65c1.39-0.33,2.76-0.77,4.06-1.36c0.18-0.07,0.36-0.14,0.54-0.21c2.42-0.98,4.7-2.29,6.78-3.88
			c4.04-3.08,7.28-7.07,9.57-11.6c2.27-4.5,3.6-9.44,4.37-14.41c0.42-2.75,0.74-5.55,0.74-8.33
			C205.62,183.69,205.24,180.48,204.75,177.29z"/>
		<path class="st9" d="M110.55,181.97c1.89-5.75,4.99-11.08,8.95-15.66c1.56-1.81,3.26-3.49,5.07-5.04
			c-3.4,0.65-7.09-0.01-10.35-0.94c-3.69-1.05-7.16-2.67-10.35-4.82c-2.97-2-5.67-4.39-8.01-7.1c-2.27-2.63-4.21-5.53-5.86-8.58
			c-1.68-3.1-3.08-6.36-4.3-9.67c-1.26-3.41-2.33-6.89-3.34-10.38c-1.03-3.56-1.98-7.15-2.97-10.72c-0.98-3.54-2-7.07-3.18-10.55
			c-1.15-3.42-2.45-6.8-4.02-10.05c-0.51-1.06-1.05-2.1-1.62-3.13c-1.33,0.9-2.61,1.87-3.83,2.92c-1.26,1.08-2.42,2.24-3.54,3.46
			c-1.05,1.15-2.1,2.32-2.87,3.68c-0.67,1.19-1.31,2.69-0.8,4.05c0.17,0.44,0.41,0.84,0.69,1.23c0.03-0.01,0.07-0.01,0.09,0.02
			c0.14,0.21,0.27,0.43,0.4,0.65c0.28,0.38,0.55,0.77,0.76,1.19c0.02,0.05,0.02,0.1,0,0.14c2.19,4.13,3.11,8.85,3.87,13.42
			c0.46,2.73,0.79,5.46,0.94,8.22c0.16,2.93,0.17,5.87,0.16,8.81c-0.01,5.5-0.06,11,0.94,16.43c0.88,4.79,2.62,9.38,5.44,13.37
			c1.19,1.68,2.59,3.24,4.18,4.54c1.6,1.54,3.5,2.74,5.54,3.61c-0.38-0.08-0.75-0.17-1.11-0.29c-0.35-0.11-0.69-0.25-1.02-0.38
			c1.28,2.17,2.63,4.29,4.07,6.35c2.76,3.96,5.85,7.71,9.29,11.1c3.39,3.35,7.15,6.36,11.27,8.76c1.2,0.7,2.43,1.35,3.68,1.93
			C108.1,192.99,108.79,187.3,110.55,181.97z"/>
		<path class="st9" d="M67.11,148.06c-0.06-1.01-0.1-2.02-0.1-3.03c-0.02-3.51,0.54-7,0.93-10.48c0.21-1.82,0.39-3.65,0.51-5.48
			c0.1-1.54,0.09-3.06,0.02-4.59c-0.29-5.91-1.4-11.8-3.23-17.43c-1.28-3.95-2.94-7.81-5.07-11.38c-0.61,1.14-1.13,2.53-0.66,3.79
			c0.17,0.44,0.41,0.84,0.69,1.23c0.03-0.01,0.07-0.01,0.09,0.02c0.14,0.21,0.27,0.43,0.4,0.65c0.28,0.38,0.55,0.77,0.76,1.19
			c0.02,0.05,0.02,0.1,0,0.14c2.19,4.13,3.11,8.85,3.87,13.42c0.46,2.73,0.79,5.46,0.94,8.22c0.16,2.93,0.17,5.87,0.16,8.81
			C66.41,138.14,66.37,143.12,67.11,148.06z"/>
		<path class="st9" d="M91.56,179.69c-0.68-0.52-1.36-1.03-2.05-1.53c1.67,2.83,3.56,5.53,5.82,7.92c2.29,2.42,4.96,4.44,7.93,5.95
			c-0.92-1.58-2-3.07-3.19-4.47C97.57,184.61,94.62,182.05,91.56,179.69z"/>
		<path class="st10" d="M90.57,184.17c-1.01-2.07-2.14-4.08-3.03-6.22c-0.42-1.01-0.82-2.06-0.97-3.15c-0.12-0.85,0-1.69,0.69-2.28
			c0.85-0.74,2.04-1.06,3.08-1.44c0.89-0.32,1.83-0.67,2.59-1.25c-2.29,0.47-4.63,0.6-6.96,0.22c-0.26-0.04-0.23-0.44,0-0.5
			c2.41-0.65,4.48-2,6.54-3.35c-3.15,0.89-6.5,1.02-9.66,0.1c-3.12-0.9-5.9-2.73-8.2-5c-2.48-2.43-4.45-5.36-6.04-8.44
			c-0.36-0.69-0.69-1.4-1.01-2.11c0.94,4.36,2.62,8.53,5.2,12.19c1.19,1.68,2.59,3.24,4.18,4.54c1.6,1.54,3.5,2.74,5.54,3.61
			c-0.38-0.08-0.75-0.17-1.11-0.29c-0.35-0.11-0.69-0.25-1.02-0.38c1.28,2.17,2.63,4.29,4.07,6.35c2.01,2.89,4.21,5.67,6.58,8.27
			C90.88,184.77,90.72,184.47,90.57,184.17z"/>
		<path class="st10" d="M114.21,160.33c-3.69-1.05-7.16-2.67-10.35-4.82c-2.97-2-5.67-4.39-8.01-7.1c-2.27-2.63-4.21-5.53-5.86-8.58
			c-1.68-3.1-3.08-6.36-4.3-9.67c-1.26-3.41-2.33-6.89-3.34-10.38c-1.03-3.56-1.98-7.15-2.97-10.72c-0.98-3.54-2-7.07-3.18-10.55
			c-1.15-3.42-2.45-6.8-4.02-10.05c-0.51-1.06-1.05-2.1-1.62-3.13c-1.33,0.9-2.61,1.87-3.83,2.92c-1.26,1.08-2.42,2.24-3.54,3.46
			c-1.05,1.15-2.1,2.32-2.87,3.68c-0.67,1.19-1.31,2.69-0.8,4.05c0.17,0.44,0.41,0.84,0.69,1.23c0.03-0.01,0.07-0.01,0.09,0.02
			c0.14,0.21,0.27,0.43,0.4,0.65c0.28,0.38,0.55,0.77,0.76,1.19c0.02,0.05,0.02,0.1,0,0.14c2.19,4.13,3.11,8.85,3.87,13.42
			c0.07,0.39,0.12,0.79,0.18,1.18c1.38-0.15,2.75-0.44,4.06-0.82c2.33-0.68,4.75-1.66,6.59-3.28c0.15-0.13,0.38-0.08,0.44,0.12
			c0.77,2.55,1.15,5.19,1.62,7.81c0.23,1.3,0.48,2.59,0.82,3.86c0.35,1.32,0.81,2.59,1.32,3.85c1.77,4.41,4.22,8.51,6.89,12.42
			c2.49,3.64,5.12,7.24,7.93,10.64c5.05,6.11,11.44,12.05,19.56,13.35c0.2,0.03,0.24,0.31,0.12,0.44c-2.07,2.1-3.34,4.9-4.43,7.61
			c-1.03,2.56-2.07,5.15-2.86,7.79c-0.88,2.92-1.43,5.92-1.63,8.96c-0.16,2.4-0.1,4.79,0.11,7.17c0.87,0.48,1.76,0.93,2.66,1.35
			c-0.6-5.59,0.09-11.27,1.85-16.61c1.89-5.75,4.99-11.08,8.95-15.66c1.56-1.81,3.26-3.49,5.07-5.04
			C121.16,161.92,117.47,161.26,114.21,160.33z"/>
		<g>
			<path class="st5" d="M69.84,183.22c-0.52-1.02-1.25-2.04-2.09-2.83c-0.78-0.74-1.8-1.23-2.88-0.86c-1.23,0.42-2.05,1.53-3.2,2.1
				c-2.97,0.63-6.22-0.08-9.18-0.49c-0.73-0.1-1.42-0.2-2.13-0.38c-0.46-0.12-1.19-0.41-1.66-0.23c-0.56,0.22-0.59,1.02-0.57,1.52
				c0.02,0.68,0.12,1.37,0.49,1.96c0.45,0.72,1.08,1.14,1.79,1.4c-0.17,0.06-0.34,0.11-0.5,0.17c-1.55,0.56-3.13,1.23-4.4,2.32
				c-0.55,0.47-1.09,1.06-1.26,1.78c-0.16,0.7,0.1,1.45,0.67,1.89c1.2,0.94,3.13,0.19,4.27-0.48c1.07-0.63,2.1-1.32,3.21-1.88
				c0.98-0.5,1.98-0.8,3.04-0.99c-0.13,0.08-0.25,0.16-0.37,0.24c-0.73,0.49-1.51,0.9-2.25,1.36c-1.63,1.02-3.59,2.02-4.62,3.72
				c-0.43,0.71-0.63,1.62-0.19,2.37c0.4,0.7,1.26,0.93,2.01,0.98c1.83,0.12,3.49-0.61,4.82-1.82c0.88-0.81,1.62-1.76,2.47-2.6
				c0.4-0.4,0.82-0.76,1.29-1.07c0.23-0.15,0.47-0.26,0.72-0.36c0.16,0.32,0.02,0.81-0.05,1.12c-0.14,0.6-0.37,1.18-0.6,1.76
				c-0.23,0.6-0.43,1.22-0.66,1.82c-0.35,0.89-0.72,1.78-0.89,2.73c-0.21,1.2-0.03,3.36,1.69,3.05c1.47-0.27,2.46-1.77,3.08-2.99
				c0.46-0.92,0.81-1.88,1.17-2.84c0.14-0.38,0.3-0.74,0.47-1.1c0.07,0.27,0.17,0.54,0.25,0.8c0.17,0.54,0.38,1.08,0.66,1.58
				c0.41,0.75,1.19,1.7,2.14,1.2c0.95-0.5,1.04-1.84,1.06-2.78c0.02-1.33-0.19-2.66,0-3.99c0.11-0.76,0.28-1.51,0.48-2.25
				c0.02-0.07,0.04-0.15,0.06-0.22c0.16-0.3,0.41-0.55,0.66-0.8c0.39-0.39,0.81-0.76,1.12-1.22
				C70.73,185.81,70.41,184.35,69.84,183.22z"/>
			<path class="st6" d="M69.28,187.03c-0.22,0.28-0.54,0.57-0.83,0.88c0.09-0.34,0.18-0.67,0.29-1c0.06-0.18-0.21-0.13-0.26,0
				c-0.29,0.73-0.64,1.42-0.9,2.16c-0.23,0.66-0.41,1.33-0.54,2.02c-0.28,1.47-0.1,2.9-0.12,4.38c-0.01,0.62,0,1.38-0.34,1.92
				c-0.36,0.58-0.91-0.05-1.17-0.41c-0.36-0.51-0.6-1.09-0.8-1.67c-0.19-0.56-0.27-1.22-0.59-1.72c0.13-0.25,0.27-0.49,0.41-0.74
				c-0.53,0.27-0.97,0.67-1.35,1.13c-0.53,1.07-0.9,2.24-1.34,3.32c-0.34,0.83-0.73,1.64-1.27,2.36c-0.36,0.48-0.84,0.97-1.42,1.16
				c-0.58,0.19-0.97-0.15-1.14-0.7c-0.28-0.91-0.1-1.89,0.18-2.78c0.42-1.33,0.96-2.62,1.42-3.94c0.18-0.53,0.68-1.92,0.24-2.52
				c0.17-0.05,0.34-0.11,0.51-0.15c0.07-0.02,0.14-0.07,0.2-0.14c-0.52-0.16-1.06-0.16-1.6-0.07c-1.31,0.62-2.38,1.88-3.31,2.9
				c-0.66,0.73-1.34,1.47-2.18,2.01c-0.65,0.42-1.4,0.63-2.17,0.72c-0.72,0.09-1.63,0.09-2.21-0.4c-0.64-0.53-0.5-1.43-0.11-2.06
				c0.52-0.83,1.35-1.45,2.14-2c0.73-0.51,1.51-0.96,2.26-1.44c0.82-0.52,1.69-0.96,2.46-1.56c0.16-0.12,0.33-0.26,0.51-0.4
				c0.14-0.3,0.24-0.61,0.3-0.92c-0.12,0.12-0.24,0.23-0.38,0.34c-1.99-0.19-3.97,0.86-5.63,1.85c-1.26,0.76-2.66,1.87-4.23,1.74
				c-0.67-0.06-1.25-0.51-1.35-1.2c-0.09-0.63,0.34-1.17,0.76-1.57c1.04-1,2.43-1.62,3.76-2.13c0.06-0.02,0.11-0.04,0.17-0.06
				c1.04-0.54,2.14-0.92,3.28-1.22c1.05-0.27,2.07-0.63,3.11-0.94c-0.83,0.08-1.66,0.18-2.49,0.37c-0.7,0.15-1.39,0.34-2.07,0.54
				c-0.72-0.17-1.42-0.52-1.96-1.03c-0.52-0.49-0.74-1.15-0.83-1.84c-0.04-0.32-0.07-0.66-0.01-0.98c0.06-0.33,0.12-0.3,0.44-0.24
				c0.58,0.1,1.14,0.31,1.72,0.44c0.79,0.18,1.61,0.26,2.41,0.4c1.8,0.32,3.6,0.64,5.43,0.65c2.03,0.01,4.01-0.42,5.65-1.66
				c0.1-0.08,0.02-0.19-0.09-0.12c-0.46,0.26-0.93,0.47-1.41,0.64c0.44-0.3,0.85-0.65,1.28-0.94c0.5-0.34,1.07-0.59,1.69-0.47
				c0.51,0.1,0.95,0.39,1.34,0.73c0.8,0.7,1.44,1.66,1.96,2.58C69.78,184.38,70.19,185.9,69.28,187.03z"/>
			<path class="st6" d="M63.6,194.8c0.13-0.76,0.29-1.52,0.38-2.3c-0.86,0.34-1.44,1.13-1.89,1.93c-0.84,1.5-1.36,3.22-2.45,4.57
				c-0.48,0.6-1.28,1.15-2.06,0.76c-0.21-0.11-0.39-0.27-0.54-0.46c0,1.15,0.4,2.45,1.76,2.2c1.47-0.27,2.46-1.77,3.08-2.99
				c0.46-0.92,0.81-1.88,1.17-2.84c0.14-0.38,0.3-0.74,0.47-1.1C63.56,194.65,63.58,194.72,63.6,194.8z"/>
			<path class="st6" d="M58.6,191.39c0.23-0.15,0.47-0.26,0.72-0.36c0.01,0.02,0.02,0.05,0.03,0.07c-0.01-0.09-0.02-0.19-0.04-0.28
				c-0.19-0.66-0.93-0.68-1.47-0.5c-0.57,0.19-1.08,0.55-1.55,0.91c-1.19,0.9-2.18,2.03-3.38,2.92c-1.07,0.79-2.41,1.41-3.76,1.06
				c-0.51-0.13-1-0.41-1.3-0.85c-0.13,0.51-0.11,1.06,0.17,1.54c0.4,0.7,1.26,0.93,2.01,0.98c1.83,0.12,3.49-0.61,4.82-1.82
				c0.88-0.81,1.62-1.76,2.47-2.6C57.71,192.06,58.13,191.69,58.6,191.39z"/>
			<path class="st6" d="M52.4,189.21c0.98-0.5,1.98-0.8,3.04-0.99c-0.13,0.08-0.25,0.16-0.37,0.24c-0.73,0.49-1.51,0.9-2.25,1.36
				c-0.32,0.2-0.65,0.4-0.99,0.61c1.09-0.52,2.2-0.96,3.23-1.61c0.4-0.25,0.98-0.59,1.17-1.06c0.21-0.53-0.71-0.69-1.05-0.75
				c-1.66-0.26-3.25,0.15-4.72,0.92c-0.82,0.43-1.6,0.92-2.43,1.33c-0.73,0.36-1.57,0.8-2.41,0.7c-0.62-0.07-0.98-0.4-1.18-0.83
				c-0.09,0.18-0.17,0.36-0.21,0.55c-0.16,0.7,0.1,1.45,0.67,1.89c1.2,0.94,3.13,0.19,4.27-0.48
				C50.26,190.46,51.29,189.77,52.4,189.21z"/>
			<path class="st5" d="M48.62,184.02c0.45,0.71,1.07,1.13,1.77,1.39c0.54-0.09,1.08-0.19,1.62-0.31c1.03-0.24,2.06-0.54,3.03-0.98
				c-0.89,0.07-1.78,0.21-2.67,0.12c-0.91-0.09-1.69-0.41-2.4-0.97c-0.77-0.6-1.54-1.56-1.55-2.5c-0.28,0.34-0.3,0.91-0.29,1.3
				C48.15,182.74,48.25,183.43,48.62,184.02z"/>
			<path class="st6" d="M69.84,183.22c-0.52-1.02-1.25-2.04-2.09-2.83c-0.78-0.74-1.8-1.23-2.88-0.86c-1.23,0.42-2.05,1.53-3.2,2.1
				c-2.97,0.63-6.22-0.08-9.18-0.49c-0.73-0.1-1.42-0.2-2.13-0.38c-0.28-0.07-0.67-0.21-1.04-0.27c1.68,1.33,3.95,1.6,6.06,1.84
				c2.19,0.24,4.49,0.47,6.37,1.72c1.77,1.18,3.04,2.94,3.9,4.87c0.91,2.04,1.39,4.26,1.59,6.48c0.06,0.64,0.09,1.28,0.09,1.92
				c0.26-0.6,0.3-1.34,0.31-1.93c0.02-1.33-0.19-2.66,0-3.99c0.11-0.76,0.28-1.51,0.48-2.25c0.02-0.07,0.04-0.15,0.06-0.22
				c0.16-0.3,0.41-0.55,0.66-0.8c0.39-0.39,0.81-0.76,1.12-1.22C70.73,185.81,70.41,184.35,69.84,183.22z"/>
			<path class="st0" d="M113.76,140.99c-0.8,1.15-1.75,2.2-2.73,3.2c-0.47,0.48-0.96,0.94-1.48,1.37c-0.18,0.15-0.36,0.29-0.54,0.43
				c1.08-1.75,1.89-3.69,2.55-5.62c0.52-1.54,0.91-3.11,1.22-4.71c0.03-2.02,0.22-4.03,0.17-6.05c-0.1-4.21-1.59-8.57-4.38-11.77
				c-1.3-1.5-2.93-2.78-4.8-3.47c-1.74-0.64-3.61-0.76-5.45-0.82c-0.25-0.01-0.37-0.36-0.13-0.49c2.08-1.12,4.43-1.71,6.74-1.61
				c-3.37-1.22-7.21-1.15-10.58-0.02c-2.23,0.75-4.33,2.01-6.08,3.58c-0.85,0.76-1.59,1.64-2.33,2.5c-0.72,0.8-1.38,1.66-1.98,2.57
				c-2.94,4.49-4.43,9.68-5.84,14.81c-1.53,5.58-1.99,11.38-3.13,17.04c-0.58,2.9-1.3,5.76-2.11,8.6c-0.71,2.5-1.44,5.01-2.37,7.44
				c-1.68,4.41-3.99,8.82-7.44,12.11c-0.41,0.39-0.84,0.76-1.29,1.12c-0.1,0.08-0.14,0.18-0.14,0.26c-0.05,0.04-0.1,0.07-0.14,0.12
				c-0.09,0.09-0.08,0.26,0.07,0.26c0.74,0.01,1.58-0.11,2.33-0.36c-0.57,0.62-1.39,1.1-2.1,1.44c-0.11,0.05-0.33,0.3-0.14,0.4
				c0.96,0.48,2.04,0.63,3.1,0.6c0.44-0.01,0.89-0.06,1.34-0.13c-0.23,0.27-0.42,0.59-0.54,0.79c-0.43,0.73-0.88,1.62-0.96,2.48
				c-0.03,0.25,0.29,0.22,0.43,0.13c0.7-0.46,1.36-0.98,2.1-1.37c0.3-0.16,0.63-0.27,0.95-0.39c-0.21,0.41-0.34,0.89-0.43,1.31
				c-0.17,0.85-0.29,1.96,0.08,2.78c0.09,0.2,0.36,0.17,0.49,0.01c0.61-0.75,1.26-1.46,2-2.1c0.49-0.42,1.02-0.79,1.55-1.15
				c0.55-0.26,1.09-0.53,1.62-0.8c2.14-1.08,4.21-2.27,6.2-3.61c3.96-2.65,7.62-5.71,10.99-9.08c3.38-3.38,6.48-7.03,9.2-10.96
				c2.73-3.95,5.11-8.13,7.39-12.35c0.47-0.87,0.93-1.75,1.37-2.64c0.16-0.09,0.31-0.22,0.44-0.32c0.29-0.22,0.56-0.44,0.84-0.67
				c0.54-0.46,1.04-0.94,1.53-1.45c0.98-1.03,1.76-2.2,2.55-3.38C113.97,140.92,113.81,140.91,113.76,140.99z"/>
			<path class="st7" d="M107.29,148.03c-2.19,4.13-4.5,8.21-7.08,12.1c-5.14,7.77-11.7,14.69-19.27,20.13
				c-2.18,1.56-4.45,3.02-6.82,4.27c-0.5,0.26-1,0.53-1.51,0.79c-0.05-0.01-0.11-0.01-0.18,0.02c-0.38,0.17-0.74,0.37-1.08,0.59
				c-0.09,0.04-0.17,0.08-0.26,0.12c-0.31,0.24-0.62,0.49-0.91,0.75c-0.07,0.06-0.14,0.12-0.2,0.18c-0.04,0.03-0.08,0.07-0.12,0.1
				c0,0,0,0,0.01,0c-0.6,0.55-1.17,1.15-1.68,1.75c-0.14-0.61-0.08-1.29,0.01-1.87c0.05-0.35,0.14-0.86,0.33-1.28
				c0.07-0.37,0.17-0.74,0.31-1.09c-0.04,0.02-0.07,0.05-0.11,0.07c-0.27,0.14-0.56,0.23-0.85,0.32c-0.38,0.13-0.74,0.29-1.09,0.49
				c-0.52,0.29-1.01,0.65-1.5,0.99c0.13-0.51,0.38-1.02,0.6-1.47c0.07-0.14,0.18-0.36,0.3-0.58c-0.01-0.05-0.01-0.1,0.01-0.15
				c0.19-0.4,0.42-0.78,0.65-1.16c-1.45,0.37-3.07,0.52-4.46-0.02c0.74-0.41,1.44-0.92,2.01-1.55c0.08-0.27,0.14-0.54,0.19-0.81
				c-0.02,0-0.05,0.01-0.07,0.02c-0.47,0.18-0.93,0.35-1.42,0.46c-0.25,0.06-0.51,0.11-0.76,0.16c3.57-2.83,6.05-6.88,7.88-11
				c0.98-2.19,1.75-4.46,2.44-6.76c0.85-2.8,1.64-5.63,2.31-8.48c0.66-2.79,1.17-5.61,1.61-8.45c0.44-2.87,0.85-5.74,1.44-8.58
				c0.57-2.71,1.34-5.39,2.15-8.04c0.77-2.54,1.69-5.04,2.89-7.41c1.1-2.17,2.43-4.2,4.16-5.92c1.07-1.07,2.28-1.97,3.56-2.75
				c0.17-0.17,0.34-0.32,0.51-0.48c0.66-0.38,1.34-0.72,2.05-1.01c3.68-1.55,8.13-1.63,11.82-0.06c3.68,1.57,5.92,4.94,6.91,8.71
				c0.9,3.43,0.9,7.07,0.52,10.59c0.04,0.74,0,1.48-0.09,2.21c-0.22,1.65-0.67,3.25-1.25,4.8c-0.03,0.11-0.05,0.22-0.08,0.33
				c-0.02,0.08,0,0.12,0.04,0.14c-0.06,0.22-0.12,0.44-0.19,0.66C110.03,142.7,108.67,145.42,107.29,148.03z"/>
			<path class="st7" d="M65.78,178.58c1.8-1.83,3.17-4.07,4.35-6.35c3.03-5.87,4.83-12.32,6.25-18.75
				c1.74-7.88,2.86-15.94,5.2-23.68c1.71-5.66,5.06-10.93,9.75-14.58c2.26-1.76,4.82-3.12,7.57-3.93c-1.91,0.06-3.81,0.46-5.54,1.19
				c-0.7,0.3-1.39,0.64-2.05,1.01c-0.18,0.15-0.35,0.31-0.51,0.48c-1.28,0.78-2.49,1.68-3.56,2.75c-1.73,1.72-3.06,3.75-4.16,5.92
				c-1.21,2.37-2.12,4.87-2.89,7.41c-0.81,2.65-1.58,5.33-2.15,8.04c-0.59,2.84-0.99,5.72-1.44,8.58c-0.44,2.84-0.96,5.65-1.61,8.45
				c-0.67,2.85-1.46,5.68-2.31,8.48c-0.7,2.3-1.47,4.56-2.44,6.76c-1.65,3.72-3.84,7.38-6.87,10.14
				C64.24,179.98,65.06,179.31,65.78,178.58z"/>
			<path class="st3" d="M112.08,121.13c-0.98-3.77-3.23-7.14-6.91-8.71c-3.68-1.57-8.14-1.49-11.82,0.06
				c-0.7,0.3-1.39,0.64-2.05,1.01c-0.18,0.15-0.35,0.31-0.51,0.48c-1.28,0.78-2.49,1.68-3.56,2.75c-1.73,1.72-3.06,3.75-4.16,5.92
				c-0.03,0.06-0.06,0.12-0.09,0.19c1.66-2.17,3.65-4.1,5.93-5.6c3.08-2.03,6.7-3.18,10.4-3.03c0.28,0.01,0.37,0.46,0.07,0.51
				c-1.88,0.37-3.63,1.34-5.12,2.56c2.26-0.8,4.73-0.78,6.91,0.4c0.19,0.11,0.15,0.43-0.06,0.48c-1.44,0.34-2.76,0.96-4.08,1.61
				c0.04,0,0.07,0,0.11,0.01c3.5,0.41,4.83,4.38,5.09,7.39c0.17,2-0.19,3.99-0.68,5.92c-0.69,2.67-1.74,5.24-2.95,7.71
				c-1.23,2.52-2.63,4.94-4.08,7.34c-1.36,2.25-2.74,4.5-4.12,6.73c-2.83,4.55-5.77,9.04-9.03,13.29
				c-3.19,4.17-6.69,8.13-10.72,11.51c-0.18,0.15-0.53,0.01-0.44-0.25c0.3-0.91,0.52-1.83,0.72-2.77c-1.17,1.61-2.73,2.9-4.35,4.07
				c-0.22,0.16-0.48-0.14-0.36-0.36c0.32-0.57,0.63-1.14,0.94-1.72c-0.16,0.13-0.31,0.26-0.47,0.38c-1.15,0.9-2.42,1.68-3.79,2.21
				c0.07-0.02,0.14-0.03,0.22-0.05c0.49-0.12,0.95-0.28,1.42-0.46c0.02-0.01,0.05-0.01,0.07-0.02c-0.05,0.27-0.12,0.54-0.19,0.81
				c-0.57,0.63-1.27,1.13-2.01,1.55c1.38,0.54,3,0.39,4.46,0.02c-0.24,0.38-0.47,0.75-0.65,1.16c-0.02,0.05-0.03,0.1-0.01,0.15
				c-0.13,0.22-0.23,0.44-0.3,0.58c-0.23,0.45-0.47,0.96-0.6,1.47c0.49-0.34,0.98-0.7,1.5-0.99c0.35-0.2,0.71-0.36,1.09-0.49
				c0.29-0.1,0.58-0.19,0.85-0.32c0.03-0.03,0.07-0.05,0.11-0.07c-0.13,0.35-0.24,0.72-0.31,1.09c-0.19,0.42-0.28,0.93-0.33,1.28
				c-0.09,0.59-0.15,1.27-0.01,1.87c0.52-0.61,1.08-1.21,1.68-1.75c0,0,0,0-0.01,0c0.04-0.03,0.08-0.07,0.12-0.1
				c0.07-0.06,0.13-0.12,0.2-0.18c0.3-0.26,0.6-0.51,0.91-0.75c0.09-0.04,0.17-0.08,0.26-0.12c0.35-0.22,0.71-0.42,1.08-0.59
				c0.07-0.03,0.13-0.03,0.18-0.02c0.51-0.26,1.01-0.53,1.51-0.79c2.37-1.25,4.64-2.71,6.82-4.27c7.57-5.43,14.13-12.36,19.27-20.13
				c2.58-3.9,4.89-7.98,7.08-12.1c1.38-2.6,2.75-5.33,3.74-8.16c0.07-0.22,0.13-0.44,0.19-0.66c-0.04-0.02-0.06-0.07-0.04-0.14
				c0.03-0.11,0.05-0.22,0.08-0.33c0.58-1.56,1.03-3.16,1.25-4.8c0.1-0.74,0.13-1.47,0.09-2.21
				C112.97,128.2,112.97,124.57,112.08,121.13z"/>
		</g>
	</g>
	<g>
		<g>
			<g>
				<path class="st11" d="M30.75,100.15c-0.37-1.69-0.45-3.43-0.78-5.12c-0.15-0.77-0.29-1.55-0.46-2.32
					c-0.14-0.68-0.34-1.37-0.75-1.95c-0.87-1.23-2.51-1.68-3.84-2.22c-1.47-0.61-3.03-1.29-4.63-1.41
					c-0.13-0.01-0.35,0.06-0.37,0.22c-0.04,0.47,0.05,0.9,0.21,1.34c0.19,1.24,0.49,2.47,0.83,3.67c0.47,1.67,0.99,3.33,1.59,4.96
					c0.56,1.52,1.21,3.15,2.15,4.48c0.61,0.87,1.51,1.6,2.5,2c0.96,0.4,2.07,0.43,2.93-0.23C31.24,102.71,31.02,101.37,30.75,100.15
					z"/>
				<path class="st12" d="M30.35,102.51c-0.33,1.17-1.72,1.29-2.68,0.94c-2.47-0.91-3.54-3.54-4.46-5.79
					c-0.67-1.65-1.26-3.33-1.81-5.02c-0.4-1.24-0.77-2.5-1.01-3.79c0.15-0.04,0.31-0.18,0.25-0.33c-0.11-0.31-0.2-0.61-0.21-0.93
					c1.22,0.16,2.4,0.63,3.54,1.07c1.15,0.45,2.41,0.83,3.45,1.49c0.61,0.38,1.05,0.9,1.31,1.57c0.26,0.69,0.35,1.43,0.45,2.15
					c0.21,1.58,0.44,3.16,0.67,4.74c0.1,0.67,0.24,1.32,0.39,1.98C30.36,101.19,30.52,101.89,30.35,102.51z"/>
				<path class="st13" d="M20.38,88.85c0.24,1.28,0.6,2.55,1.01,3.79c0.11,0.33,0.22,0.66,0.33,0.99c0.3,0.3,0.6,0.59,0.91,0.87
					c0.83,0.77,1.7,1.51,2.53,2.28c0.89,0.82,1.73,1.68,2.54,2.57c0.92,1,1.8,2.03,2.67,3.06c0.13-0.59-0.02-1.25-0.15-1.82
					c-0.15-0.66-0.29-1.31-0.39-1.98c-0.23-1.58-0.46-3.16-0.67-4.74c-0.1-0.73-0.19-1.46-0.45-2.15c-0.25-0.67-0.7-1.19-1.31-1.57
					c-1.05-0.66-2.31-1.04-3.45-1.49c-1.14-0.45-2.32-0.92-3.54-1.07c0.02,0.32,0.1,0.63,0.21,0.93
					C20.69,88.66,20.53,88.81,20.38,88.85z"/>
			</g>
			<g>
				<path class="st0" d="M119.28,4.78c-0.56,0.46-1.09,0.96-1.72,1.31c0.64-0.66,1.53-1.12,1.7-2.11c0.02-0.12-0.11-0.18-0.21-0.14
					c-0.94,0.3-1.68,1-2.57,1.4c-1.07,0.47-2.17,0.87-3.28,1.22c-2.11,0.67-4.25,1.25-6.38,1.87c-4.17,1.23-8.34,2.62-12.12,4.8
					c-3.35,1.94-6.25,4.53-8.4,7.76c-2.13,3.2-3.45,6.9-3.9,10.72c-0.28,2.37-0.19,4.78,0.39,7.04c0.01,0.09,0.03,0.17,0.04,0.26
					c0.18,1.03,0.39,2.01,0.87,2.93c0.36,0.75,0.84,1.44,1.44,2.05c0.22,0.24,0.44,0.46,0.67,0.65c0.02,0.02,0.05,0.03,0.08,0.03
					c1.65,1.34,3.81,2.11,5.86,1.95c3.62-0.27,6.47-3.22,8.2-6.19c2.09-3.58,2.87-7.69,4.5-11.47c1.76-4.08,4.41-7.67,7.04-11.22
					c1.55-2.09,3.06-4.2,4.62-6.28c1.18-1.57,2.62-3.25,3.06-5.21c0.04-0.16-0.08-0.2-0.21-0.18c0.24-0.33,0.47-0.67,0.63-1.05
					C119.71,4.72,119.42,4.67,119.28,4.78z"/>
				<path class="st14" d="M118.02,7.38c0.14-0.09,0.26-0.2,0.38-0.31c-0.57,1.4-1.61,2.64-2.5,3.8c-1.31,1.7-2.55,3.45-3.82,5.18
					c-2.49,3.38-5.1,6.71-7.07,10.43c-1.88,3.55-2.76,7.47-4.32,11.15c-1.38,3.24-3.62,6.8-7.13,8.01c-3.76,1.3-8.28-1.2-9.57-4.88
					c-0.03-0.09-0.11-0.12-0.2-0.12c-0.22-0.65-0.35-1.33-0.48-2.03c-0.24-1.31-0.45-2.63-0.54-3.96c-0.05-0.74-0.04-1.46-0.01-2.19
					c0.34-3.65,1.47-7.25,3.35-10.4c1.93-3.24,4.66-5.97,7.86-7.98c3.63-2.28,7.71-3.73,11.79-4.97c2.31-0.7,4.64-1.33,6.95-2.04
					c1.16-0.36,2.32-0.74,3.44-1.23c0.5-0.22,0.98-0.45,1.43-0.76c0.41-0.28,0.8-0.59,1.24-0.81c-0.29,0.92-1.43,1.4-1.95,2.19
					c-0.08,0.12,0.08,0.22,0.18,0.18c0.62-0.23,1.16-0.58,1.67-0.98c-0.36,0.51-0.77,0.99-1.08,1.53
					C117.5,7.46,117.88,7.46,118.02,7.38z"/>
				<path class="st14" d="M85.38,27.14c0.99-2.37,2.35-4.59,3.96-6.59c1.43-1.77,3.06-3.46,4.92-4.78c2.98-2.12,6.47-3.37,9.91-4.53
					c3.44-1.15,6.97-2.2,10.15-3.97c1.01-0.56,1.97-1.21,2.86-1.94c-0.34,0.2-0.69,0.36-1.05,0.52c-1.12,0.48-2.28,0.87-3.44,1.23
					c-2.31,0.71-4.64,1.34-6.95,2.04c-4.09,1.24-8.16,2.69-11.79,4.97c-3.2,2.01-5.92,4.74-7.86,7.98
					c-1.88,3.15-3.01,6.75-3.35,10.4c-0.03,0.73-0.04,1.45,0.01,2.19c0.09,1.33,0.3,2.65,0.54,3.96c0.13,0.7,0.26,1.38,0.48,2.03
					c0.02,0,0.04,0,0.06,0C83.12,36.11,83.6,31.42,85.38,27.14z"/>
				<path class="st3" d="M114.64,10.75c-2.43,1.45-5.08,2.49-7.68,3.59c-2.77,1.17-5.55,2.41-7.98,4.19
					c-2.75,2.01-4.95,4.68-6.44,7.74c-1.49,3.05-2.28,6.39-2.67,9.75c-0.03,0.28-0.39,0.27-0.5,0.05c-0.8-1.53-0.91-3.25-0.78-4.97
					c-0.25,0.88-0.52,1.76-0.84,2.62c-0.05,0.12-0.23,0.2-0.35,0.13c-1.75-1-2.94-2.58-3.38-4.54c-0.15-0.67-0.21-1.35-0.21-2.03
					c-0.53,1.69-0.88,3.44-1.04,5.2c-0.03,0.73-0.04,1.45,0.01,2.19c0.09,1.33,0.3,2.65,0.54,3.96c0.13,0.7,0.26,1.38,0.48,2.03
					c0.09,0,0.17,0.03,0.2,0.12c1.29,3.68,5.81,6.17,9.57,4.88c3.51-1.21,5.76-4.77,7.13-8.01c1.56-3.68,2.44-7.6,4.32-11.15
					c1.97-3.72,4.58-7.06,7.07-10.43c1.27-1.73,2.52-3.48,3.82-5.18c0.54-0.7,1.13-1.43,1.64-2.2
					C116.63,9.44,115.66,10.13,114.64,10.75z"/>
				<path class="st0" d="M122.62,80.95c-0.79-2.63-2.68-4.82-5.13-6.04c-1.13-0.56-2.34-0.93-3.59-1.15
					c-0.53-1.35-0.97-2.73-1.37-4.12c-1.6-5.51-2.54-11.26-5.77-16.14c-1.16-1.76-2.5-3.36-3.93-4.89c-2.1-2.41-4.54-4.54-7.23-6.28
					c-2.88-1.87-6.06-3.37-9.27-4.58c-3.2-1.21-6.52-2.11-9.91-2.58c-3.43-0.48-6.94-0.56-10.39-0.16c-3.18,0.36-6.3,1.12-9.32,2.16
					c-3.08,1.05-6.06,2.37-8.98,3.83c-1.4,0.7-2.75,1.47-4.03,2.38c-1.26,0.89-2.45,1.87-3.64,2.86c-2.49,2.07-5,4.07-7.86,5.64
					c-2.21,1.21-4.64,2.18-7.17,2.4c-0.01-0.02-0.02-0.03-0.06-0.03c-3.56-0.14-8.48-2.54-11.1,1.05c-0.85,1.16-1.28,2.59-1.54,4
					c-0.29,1.6-0.37,3.23-0.36,4.85c0.02,2.94,0.29,5.94,0.84,8.83c0.84,4.49,2.61,8.78,4.99,12.68c2.4,3.93,5.4,7.49,8.82,10.57
					c3.59,3.23,7.67,5.9,11.92,8.18c9.08,4.85,19.25,7.85,29.57,8c3.64,0.05,7.28-0.24,10.85-0.92c3.17-0.47,6.34-0.89,9.49-1.47
					c2.9-0.53,5.78-1.14,8.63-1.9c5.63-1.51,11.16-3.7,15.88-7.17c4.33-3.18,8.03-7.41,9.52-12.66
					C123.17,85.89,123.33,83.34,122.62,80.95z"/>
				<path class="st7" d="M121.87,87.04c-1.02,5.13-4.38,9.36-8.38,12.55c-4.38,3.5-9.59,5.74-14.94,7.32
					c-4.48,1.32-9.08,2.22-13.68,3.05c0.08-0.03,0.15-0.06,0.23-0.08c-2.31,0.53-4.66,0.94-7.02,1.16
					c-1.98,0.33-3.97,0.54-5.95,0.64c-10.15,0.53-20.24-1.78-29.43-6.05c-8.51-3.95-16.35-9.48-21.96-17.08
					c-2.65-3.59-4.8-7.59-6.15-11.85c-0.99-3.13-1.45-6.39-1.69-9.66c-0.23-3.07-0.33-6.35,0.58-9.33c0.36-1.18,0.93-2.41,1.97-3.13
					c0.57-0.4,1.23-0.55,1.91-0.61c1.29-0.11,2.59,0.09,3.86,0.28c0.05,0.01,0.1,0.01,0.14,0.02c-0.03,0.08-0.02,0.17,0.1,0.22
					c1.2,0.52,2.57,0.51,3.85,0.38c1.36-0.14,2.7-0.45,3.97-0.93c2.99-1.13,5.79-2.89,8.31-4.84c2.44-1.89,4.7-4.02,7.27-5.74
					c1.35-0.91,2.8-1.63,4.27-2.34c1.43-0.69,2.87-1.35,4.33-1.95c2.97-1.23,6.05-2.23,9.2-2.87c3.33-0.67,6.75-0.89,10.15-0.69
					c6.97,0.42,13.66,2.65,19.81,5.89c2.96,1.56,5.65,3.5,8.07,5.82c1.17,1.12,2.24,2.32,3.26,3.58c0.46,0.57,0.91,1.13,1.37,1.7
					c0.17,0.25,0.34,0.49,0.51,0.74c1.57,2.36,2.69,4.92,3.55,7.61c1.34,4.22,2.2,8.65,3.8,12.79c-1.51-0.2-3.04-0.21-4.54-0.12
					c-1.55,0.1-3.1,0.33-4.57,0.86c-0.19,0.07-0.38,0.15-0.57,0.22c1.5-0.37,3-0.78,4.56-0.86c1.45-0.07,2.97,0.05,4.39,0.33
					c0.69,0.14,1.38,0.34,2.06,0.6c0.24,0.06,0.48,0.13,0.72,0.21c2.64,0.85,4.85,2.66,6.01,5.2
					C122.24,82.27,122.34,84.72,121.87,87.04z"/>
				<path class="st15" d="M15.26,57.76c1.38-0.12,2.75-0.37,4.11-0.62c2.48-0.46,4.96-0.78,7.49-0.85c2.61-0.07,5.38,0.1,7.78,1.22
					c3.58,1.66,5.68,5.1,6.52,8.82c0.01-0.07,0.02-0.15,0.03-0.22c0.23-2.21-0.21-4.44-0.99-6.5c-0.4-1.04-0.88-2.05-1.42-3.02
					c-0.26-0.46-0.51-0.94-0.82-1.37c-0.25-0.35-0.57-0.64-0.83-0.98c-0.51-0.66-0.3-1.29,0-2c0.3-0.71,0.93-1.26,1.54-1.7
					c1.4-1.01,3.05-1.61,4.47-2.6c3.62-2.52,6.92-5.49,10.68-7.8c3.64-2.23,7.67-3.66,11.85-4.4c-1.01,0.12-2.01,0.28-3.01,0.48
					c-3.16,0.64-6.23,1.64-9.2,2.87c-1.46,0.6-2.91,1.26-4.33,1.95c-1.46,0.71-2.91,1.43-4.27,2.34c-2.57,1.72-4.83,3.84-7.27,5.74
					c-2.52,1.95-5.31,3.72-8.31,4.84c-1.28,0.48-2.62,0.79-3.97,0.93c-1.28,0.13-2.65,0.14-3.85-0.38c-0.11-0.05-0.13-0.13-0.1-0.22
					c-0.05-0.01-0.1-0.01-0.14-0.02c-1.28-0.19-2.57-0.38-3.86-0.28c-0.68,0.06-1.34,0.21-1.91,0.61c-1.04,0.73-1.61,1.95-1.97,3.13
					c-0.01,0.03-0.02,0.06-0.02,0.09C14.06,57.83,14.67,57.81,15.26,57.76z"/>
				<path class="st7" d="M54.46,48.26c-0.38,0.66-0.7,1.38-0.89,2.13c1.43-0.61,2.86-1.35,3.97-2.47c1.08-1.08,1.73-2.43,2.03-3.91
					c-0.68,0.17-1.33,0.47-1.91,0.84C56.35,45.71,55.24,46.91,54.46,48.26z"/>
				<path class="st3" d="M72.67,37.39c2.42,0.58,4.86,1.21,7.17,2.13c2.25,0.88,4.42,2.1,6,3.96c0.18,0.21-0.09,0.49-0.32,0.39
					c-1.29-0.56-2.8-0.66-4.18-0.37c1.21,0.59,2.4,1.25,3.49,2.05c1.02,0.76,1.94,1.67,2.66,2.73c0.82,1.2,1.33,2.53,1.74,3.91
					c0.53,1.78,0.55,3.6,0.37,5.43c-0.16,1.61-0.43,3.21-0.38,4.83c1.19-1.23,2-2.75,3.04-4.11c0.12-0.16,0.38-0.11,0.45,0.07
					c1.57,4.2-1.18,8.37-1.27,12.58c4.63-1.91,9.9-3.16,14.75-1.29c0.22,0.08,0.19,0.4-0.01,0.48c-3.95,1.62-8.6,2.84-11.25,6.41
					c2.74-1.24,5.69-1.93,8.68-2.01c0.16-0.06,0.31-0.13,0.47-0.19c1.47-0.53,3.01-0.76,4.57-0.86c1.49-0.09,3.03-0.08,4.54,0.12
					c-1.6-4.14-2.45-8.57-3.8-12.79c-0.86-2.69-1.98-5.25-3.55-7.61c-0.17-0.25-0.34-0.5-0.51-0.74c-0.45-0.57-0.91-1.13-1.37-1.7
					c-1.01-1.26-2.09-2.46-3.26-3.58c-2.42-2.32-5.11-4.25-8.07-5.82c-6.15-3.24-12.84-5.47-19.81-5.89
					c-3.39-0.2-6.82,0.01-10.15,0.69c-0.95,0.19-1.9,0.42-2.83,0.68C64.12,36.39,68.43,36.37,72.67,37.39z"/>
				<path class="st3" d="M121.24,80.1c-1.17-2.53-3.38-4.35-6.01-5.2c-0.24-0.08-0.48-0.14-0.72-0.21c-0.67-0.26-1.37-0.46-2.06-0.6
					c-1.42-0.29-2.95-0.4-4.39-0.33c-1.5,0.07-2.94,0.46-4.39,0.82c1.04-0.02,2.08,0.02,3.11,0.15c0.32,0.04,0.26,0.46-0.01,0.52
					c-0.8,0.18-1.59,0.38-2.37,0.61c-2.71,0.79-5.3,1.92-7.68,3.45c-2.33,1.5-4.43,3.34-6.41,5.27c-1.13,1.1-2.2,2.26-3.33,3.36
					c-1.16,1.13-2.37,2.21-3.62,3.23c-2.51,2.05-5.2,3.89-8,5.51c-5.61,3.25-11.66,5.68-17.86,7.54c-3.89,1.16-7.85,2.1-11.87,2.69
					c8.39,3.44,17.42,5.25,26.51,4.78c1.98-0.1,3.97-0.31,5.95-0.64c2.36-0.21,4.71-0.62,7.02-1.16c-0.08,0.03-0.15,0.06-0.23,0.08
					c4.6-0.83,9.2-1.73,13.68-3.05c5.35-1.58,10.55-3.82,14.94-7.32c4-3.2,7.36-7.43,8.38-12.55
					C122.34,84.72,122.24,82.27,121.24,80.1z"/>
				<path class="st3" d="M37.89,101.74c-0.69-4.44-0.41-9.04,0.89-13.35c0.81-2.67,1.84-5.28,2.62-7.96
					c0.75-2.61,1.27-5.29,1.42-8.01c0.14-2.6-0.08-5.21-0.68-7.74c-0.58-2.45-1.48-4.86-2.87-6.97c-1.26-1.92-3.07-3.78-5.4-4.26
					c-1.29-0.27-2.57-0.09-3.83,0.18c-0.25,0.1-0.5,0.21-0.75,0.3c-1.28,0.48-2.62,0.79-3.97,0.93c-1.28,0.13-2.65,0.14-3.85-0.38
					c-0.11-0.05-0.13-0.13-0.1-0.22c-0.05-0.01-0.1-0.01-0.14-0.02c-1.28-0.19-2.57-0.38-3.86-0.28c-0.68,0.06-1.34,0.21-1.91,0.61
					c-1.04,0.73-1.61,1.95-1.97,3.13c-0.9,2.98-0.81,6.25-0.58,9.33c0.24,3.27,0.7,6.53,1.69,9.66c1.35,4.26,3.5,8.25,6.15,11.85
					c4.6,6.24,10.7,11.07,17.44,14.79C38.07,102.81,37.98,102.28,37.89,101.74z"/>
				<path class="st9" d="M118.19,79.67c-5.42-3.14-11.83-2.59-17.51-0.47c-3.02,1.13-5.8,2.63-8.43,4.47
					c-2.55,1.78-5.02,3.73-7.83,5.08c-5.63,2.69-11.93,3.64-18.1,3.98c-5.14,0.29-10.35-0.29-15.34-1.56
					c-5.02-1.27-10.01-3.29-14.05-6.6c-1.5-1.23-2.84-2.62-3.87-4.27c-0.88-1.41-1.59-2.93-2.25-4.45
					c-1.49-3.47-2.69-7.05-4.21-10.5c-1.39-3.17-3.07-6.49-5.75-8.77c-1.49-1.27-3.2-1.99-4.99-2.24c-0.14,0.07-0.28,0.15-0.41,0.24
					c-1.04,0.73-1.61,1.95-1.97,3.13c-0.9,2.98-0.81,6.25-0.58,9.33c0.24,3.27,0.7,6.53,1.69,9.66c1.35,4.26,3.5,8.25,6.15,11.85
					c5.61,7.61,13.45,13.13,21.96,17.08c9.19,4.26,19.28,6.58,29.43,6.05c1.98-0.1,3.97-0.31,5.95-0.64
					c2.36-0.21,4.71-0.62,7.02-1.16c-0.08,0.03-0.15,0.06-0.23,0.08c4.6-0.83,9.2-1.73,13.68-3.05c5.35-1.58,10.55-3.82,14.94-7.32
					c4-3.2,7.36-7.43,8.38-12.55c0.23-1.18,0.32-2.39,0.23-3.58C121.18,81.86,119.78,80.6,118.19,79.67z"/>
				<path class="st9" d="M118.19,79.67c-5.42-3.14-11.83-2.59-17.51-0.47c-3.02,1.13-5.8,2.63-8.43,4.47
					c-2.55,1.78-5.02,3.73-7.83,5.08c-5.63,2.69-11.93,3.64-18.1,3.98c-5.14,0.29-10.35-0.29-15.34-1.56
					c-5.02-1.27-10.01-3.29-14.05-6.6c-1.5-1.23-2.84-2.62-3.87-4.27c-0.88-1.41-1.59-2.93-2.25-4.45
					c-1.49-3.47-2.69-7.05-4.21-10.5c-1.39-3.17-3.07-6.49-5.75-8.77c-1.49-1.27-3.2-1.99-4.99-2.24c-0.14,0.07-0.28,0.15-0.41,0.24
					c-1.04,0.73-1.61,1.95-1.97,3.13c-0.9,2.98-0.81,6.25-0.58,9.33c0.24,3.27,0.7,6.53,1.69,9.66c1.35,4.26,3.5,8.25,6.15,11.85
					c5.61,7.61,13.45,13.13,21.96,17.08c9.19,4.26,19.28,6.58,29.43,6.05c1.98-0.1,3.97-0.31,5.95-0.64
					c2.36-0.21,4.71-0.62,7.02-1.16c-0.08,0.03-0.15,0.06-0.23,0.08c4.6-0.83,9.2-1.73,13.68-3.05c5.35-1.58,10.55-3.82,14.94-7.32
					c4-3.2,7.36-7.43,8.38-12.55c0.23-1.18,0.32-2.39,0.23-3.58C121.18,81.86,119.78,80.6,118.19,79.67z"/>
				<path class="st10" d="M122.1,83.45c-0.92-1.59-2.32-2.86-3.91-3.78c-5.42-3.14-11.83-2.59-17.51-0.47
					c-3.02,1.13-5.8,2.63-8.43,4.47c-2.55,1.78-5.02,3.73-7.83,5.08c-5.63,2.69-11.93,3.64-18.1,3.98
					c-5.14,0.29-10.35-0.29-15.34-1.56c-5.02-1.27-10.01-3.29-14.05-6.6c-1.5-1.23-2.84-2.62-3.87-4.27
					c-0.88-1.41-1.59-2.93-2.25-4.45c-1.49-3.47-2.69-7.05-4.21-10.5c-1.39-3.17-3.07-6.49-5.75-8.77c-1.49-1.27-3.2-1.99-4.99-2.24
					c-0.14,0.07-0.28,0.15-0.41,0.24c-1.04,0.73-1.61,1.95-1.97,3.13c-0.9,2.98-0.81,6.25-0.58,9.33c0.24,3.27,0.7,6.53,1.69,9.66
					c1.35,4.26,3.5,8.25,6.15,11.85c1.52,2.06,3.21,3.97,5.03,5.74c0.64,0.2,1.28,0.38,1.94,0.48c1.33,0.19,2.76,0.06,4.07-0.22
					c1.28-0.28,2.51-0.77,3.68-1.35c1.24-0.62,2.42-1.13,3.81-1.27c2.7-0.29,5.37,0.57,7.89,1.45c1.37,0.47,2.74,0.98,4.14,1.37
					c1.33,0.37,2.7,0.62,4.05,0.86c5.64,1.01,11.44,1.47,17.15,0.81c2.83-0.33,5.64-0.93,8.32-1.91c2.38-0.87,4.59-2.17,6.76-3.48
					c4.21-2.55,8.48-5.29,13.52-5.67c0.3-0.02,0.39,0.38,0.12,0.5c-2.21,1.02-4.45,2.24-6.09,4.08c3.58-0.88,7.19-1.64,10.91-1.35
					c0.29,0.02,0.26,0.39,0.06,0.5c-2.08,1.1-4.29,1.97-6.27,3.24c0.84-0.21,1.7-0.4,2.56-0.47c0.79-0.07,1.67-0.07,2.4,0.3
					c1.63,0.82,1.36,2.97,0.67,4.34c-0.92,1.79-2.6,3.11-4.25,4.19c-1.69,1.11-3.51,2.02-5.34,2.89c-2.34,1.12-4.7,2.13-7.17,2.94
					c-2.77,0.91-5.6,1.62-8.46,2.22c-2.79,0.59-5.61,1.08-8.43,1.55c-2.9,0.48-5.82,0.88-8.76,1.08c-0.14,0.01-0.29,0.02-0.43,0.03
					c3.14,0.36,6.31,0.48,9.49,0.31c1.98-0.1,3.97-0.31,5.95-0.64c2.36-0.21,4.71-0.62,7.02-1.16c-0.08,0.03-0.15,0.06-0.23,0.08
					c4.6-0.83,9.2-1.73,13.68-3.05c5.35-1.58,10.55-3.82,14.94-7.32c4-3.2,7.36-7.43,8.38-12.55
					C122.11,85.86,122.2,84.65,122.1,83.45z"/>
				<g>
					<path class="st0" d="M137.58,18.5c0.24-0.11,0.47-0.21,0.71-0.32c1.18-0.56,2.3-1.22,3.3-2.06c-0.65,0.06-1.3,0.15-1.95,0.17
						c-0.69,0.24-1.38,0.46-2.09,0.65c-0.24,0.06-0.48,0.12-0.72,0.18c1.58-0.91,3.04-2.05,4.2-3.43c0.29-0.45,0.54-0.93,0.71-1.43
						c0.1-0.3,0.18-0.62,0.21-0.94c-0.04,0.01-0.08,0.03-0.11,0.06c-1.71,1.43-3.71,2.31-5.87,2.83c-2.36,0.57-4.79,0.89-7.2,1.19
						c-5.1,0.62-10.25,1-15.26,2.19c-4.36,1.04-8.68,2.61-12.43,5.1c-3.76,2.51-6.75,5.9-8.5,10.09c-1.05,2.51-1.69,5.2-1.97,7.91
						c-0.08,0.76-0.15,1.55-0.16,2.34c0,0.05,0,0.11,0.01,0.16c0.13,2.04,0.37,4.1,1.05,6.04c0.69,1.96,2.11,3.52,3.44,5.06
						c0.08,0.09,0.06,0.27-0.08,0.3c-0.61,0.11-1.23,0.08-1.83-0.09c-0.14-0.04-0.28-0.09-0.42-0.14c0.26,0.23,0.53,0.45,0.83,0.65
						c4.12,2.77,9.5,1.58,13.62-0.55c4.39-2.27,7.89-5.94,10.77-9.9c1.45-2,2.76-4.09,3.99-6.24c1.45-2.54,2.73-5.17,4.23-7.68
						c1.5-2.5,3.19-4.98,5.43-6.89c1.34-1.15,2.86-2.02,4.42-2.81c0.01-0.01,0.03-0.03,0.05-0.04c1.41-0.83,2.82-1.67,4.18-2.57
						c-0.06-0.02-0.13-0.04-0.19-0.03C139.16,18.36,138.37,18.41,137.58,18.5z"/>
					<path class="st16" d="M127.13,27.54c-1.62,2.29-2.91,4.81-4.22,7.28c-1.2,2.26-2.44,4.49-3.81,6.65
						c-2.58,4.05-5.64,7.91-9.55,10.75c-1.98,1.44-4.18,2.57-6.53,3.25c-2.26,0.66-4.7,0.9-6.97,0.14
						c-1.22-0.41-2.42-1.11-3.31-2.05c-0.81-0.85-1.34-1.94-1.66-3.06c-0.43-1.49-0.55-3.13-0.33-4.7c0.23,0.92,0.54,1.82,0.76,2.75
						c0.01,0.04,0.04,0.08,0.08,0.1c-0.06-0.28-0.12-0.57-0.17-0.85c-0.32-1.8-0.45-3.66-0.23-5.47c0.02-0.28,0.03-0.56,0.06-0.84
						c0.23-2.42,0.77-4.82,1.6-7.1c1.58-4.34,4.38-8.01,8.14-10.68c3.61-2.57,7.85-4.18,12.12-5.26c4.98-1.26,10.12-1.66,15.2-2.31
						c2.6-0.33,5.24-0.69,7.79-1.34c1.77-0.45,3.44-1.14,4.95-2.14c-1.28,1.8-5.96,4.81-6.37,5.1c0.17,0.01,0.34,0.01,0.51,0
						c0.1-0.01,2.76-0.34,4-0.74c-0.45,0.26-0.92,0.51-1.39,0.73c-0.98,0.46-3.45,1.41-3.68,1.49c-0.18,0.07,3.16-0.12,4.19-0.21
						c-1.87,0.88-3.75,1.72-5.49,2.84C130.54,23.36,128.69,25.32,127.13,27.54z"/>
					<path class="st15" d="M92.7,37.87c1.98-4.97,5.29-9.42,9.56-12.65c4.33-3.28,9.47-5.04,14.7-6.29
						c2.63-0.63,5.29-1.14,7.93-1.67c2.97-0.6,5.96-1.05,8.93-1.64c2.03-0.4,4.05-0.91,5.98-1.64c0.52-0.47,0.96-0.92,1.24-1.31
						c-1.5,1-3.18,1.69-4.95,2.14c-2.55,0.65-5.18,1-7.79,1.34c-5.08,0.65-10.22,1.05-15.2,2.31c-4.28,1.08-8.51,2.69-12.12,5.26
						c-3.76,2.68-6.56,6.34-8.14,10.68c-0.83,2.28-1.37,4.68-1.6,7.1c-0.03,0.28-0.04,0.56-0.06,0.84c-0.04,0.36-0.07,0.73-0.09,1.1
						C91.46,41.53,91.99,39.65,92.7,37.87z"/>
					<path class="st17" d="M124.49,22.31c-2.07,0.81-4.21,1.44-6.33,2.12c-2.12,0.67-4.22,1.44-6.28,2.29
						c-0.92,0.38-1.83,0.79-2.73,1.23c-1.86,1.11-3.62,2.38-5.19,3.86c-0.12,0.12-0.24,0.24-0.37,0.36
						c-0.96,1.04-1.85,2.16-2.64,3.35c-2.05,3.07-3.45,6.56-4.02,10.21c-0.26,1.67-0.34,3.37-0.24,5.05
						c1.31-0.03,2.61-0.19,3.88-0.48c2.74-0.62,5.31-1.78,7.69-3.25c1.41-1.05,2.72-2.25,3.9-3.58c1.04-1.17,1.99-2.42,2.87-3.72
						c1.01-1.49,2.03-2.97,3.04-4.46c2.04-2.98,4.08-5.96,6.25-8.85c1.56-2.07,3.19-4.09,4.9-6.03c-0.42,0.09-0.83,0.19-1.25,0.29
						C126.86,21.33,125.68,21.85,124.49,22.31z"/>
					<path class="st0" d="M109.25,28.44c2.81-1.66,5.89-2.82,8.97-3.87c1.87-0.64,3.72-1.31,5.56-2.04c1.92-0.77,3.8-1.63,5.73-2.38
						c0.15-0.06,0.05-0.21-0.08-0.16c-3.56,1.21-7.05,2.6-10.63,3.74c-3.18,1.02-6.35,2.13-9.29,3.73c-2.9,1.58-5.43,3.66-7.52,6.22
						c-2.01,2.46-3.48,5.32-4.44,8.35c-0.86,2.7-1.4,5.65-1.31,8.53c0.05,0.18,0.09,0.36,0.14,0.54c0.14,0.52,0.29,1.05,0.4,1.58
						c0,0.02,0.01,0.04,0.01,0.06c0.06-0.03,0.1-0.08,0.1-0.15c-0.01-0.53-0.02-1.06-0.02-1.59c0.63,0.15,1.4-0.02,2.03-0.12
						c0.73-0.11,1.45-0.26,2.16-0.45c1.44-0.39,2.85-0.94,4.18-1.61c2.64-1.34,5.06-3.16,7.07-5.33c1.14-1.23,2.11-2.55,3.06-3.93
						c0.09-0.12-0.16-0.17-0.24-0.07c-1.74,2.29-3.9,4.36-6.16,6.13c-2.26,1.78-4.82,3.21-7.58,4.06c-0.77,0.24-1.55,0.44-2.34,0.58
						c-0.38,0.07-0.77,0.13-1.15,0.18c-0.35,0.05-0.7,0.06-1.03,0.18c0-0.96,0.03-1.92,0.13-2.87c0.16-1.53,0.45-3.05,0.87-4.53
						c0.87-3.03,2.37-5.82,4.25-8.34C104.04,32.27,106.46,30.08,109.25,28.44z"/>
					<path class="st3" d="M131.29,18.39c0.54,0.02,1.08,0.01,1.61-0.05c0.96-0.1,1.91-0.33,2.84-0.65
						c-0.31,0.04-0.52,0.07-0.55,0.07c-0.17,0.01-0.34,0.01-0.51,0c0.38-0.27,4.52-2.94,6.09-4.75c-0.15,0.15-0.31,0.3-0.47,0.45
						c-1.41,1.29-3.06,2.33-4.76,3.19C134.18,17.35,132.75,17.93,131.29,18.39z"/>
					<path class="st3" d="M128.49,25.32c-1.63,1.88-2.81,4.1-3.99,6.27c-1.24,2.29-2.43,4.61-3.72,6.88
						c-1.3,2.28-2.69,4.51-4.32,6.58c-1.56,1.98-3.36,3.79-5.47,5.2c-0.9,0.6-1.86,1.15-2.88,1.53c-0.88,0.33-1.88,0.64-2.83,0.51
						c-0.82-0.12-1.52-0.84-1.24-1.71c0.29-0.89,1.2-1.54,1.94-2.05c0.39-0.27,0.78-0.52,1.18-0.78c0.48-0.31,0.9-0.69,1.33-1.06
						c1.19-1.01,2.36-2.05,3.48-3.13c1.51-1.47,2.92-3.05,4.14-4.75c-1.35,1.58-2.77,3.1-4.41,4.37c-1.29,0.99-2.69,1.76-4.18,2.39
						c-1.95,0.83-6.3,2.4-7.18-0.66c-0.24-0.84-0.15-1.76-0.02-2.61c0.15-1.04,0.44-2.06,0.83-3.04c0.8-1.99,2.02-3.8,3.44-5.4
						c1.43-1.61,3.07-3.04,4.84-4.26c1.94-1.34,4.05-2.36,6.19-3.33c2.33-1.06,4.7-2.06,6.96-3.27c1.16-0.62,2.29-1.29,3.44-1.93
						c-2.07,0.66-4.19,1.16-6.31,1.65c-2.87,0.67-5.77,1.33-8.52,2.41c-2.58,1.02-5.05,2.38-7.23,4.1
						c-2.06,1.63-3.87,3.58-5.34,5.76c-1.56,2.3-2.75,4.84-3.65,7.46c-0.06,0.18-0.28,0.17-0.35,0c-0.85-2.04-0.64-4.39-0.19-6.49
						c0.9-4.19,2.87-8.09,5.65-11.34c0.2-0.24,0.41-0.47,0.63-0.7c-3.62,2.66-6.32,6.24-7.86,10.48c-0.83,2.28-1.37,4.68-1.6,7.1
						c-0.03,0.28-0.04,0.56-0.06,0.84c-0.22,1.81-0.09,3.67,0.23,5.47c0.05,0.29,0.11,0.57,0.17,0.85c-0.04-0.02-0.07-0.05-0.08-0.1
						c-0.22-0.92-0.53-1.83-0.76-2.75c-0.22,1.57-0.11,3.2,0.33,4.7c0.32,1.12,0.85,2.21,1.66,3.06c0.89,0.94,2.09,1.63,3.31,2.05
						c2.26,0.76,4.71,0.52,6.97-0.14c2.35-0.68,4.55-1.81,6.53-3.25c3.91-2.84,6.97-6.71,9.55-10.75c1.38-2.16,2.61-4.39,3.81-6.65
						c1.31-2.47,2.6-4.99,4.22-7.28c1.56-2.21,3.41-4.17,5.7-5.65c0.13-0.08,0.25-0.16,0.38-0.24
						C131.4,22.55,129.81,23.79,128.49,25.32z"/>
				</g>
				<path class="st0" d="M54.97,69.01c0.9-0.17,1.85-0.03,2.74,0.17c1.03,0.23,2.05,0.54,3.07,0.81c1.37,0.36,2.75,0.69,4.13,0.99
					c1.35,0.29,2.7,0.55,4.07,0.76c1.16,0.18,2.33,0.33,3.51,0.34c2.23,0.02,4.46-0.52,6.09-2.12c0.34-0.34,0.64-0.7,0.91-1.09
					c0.7-1.23,1.09-2.65,1.33-4.08c0.48-2.83,0.83-5.82,0.38-8.67c0.22,0.14,0.44,0.27,0.67,0.41c0.14,0.08,0.59-0.05,0.41-0.25
					c-0.88-0.97-2.16-1.59-3.3-2.19c-1.24-0.64-2.5-1.25-3.79-1.78c-2.48-1.01-5.22-1.8-7.92-1.77c-2.33,0.03-4.65,0.7-6.63,1.93
					c-2.11,1.31-3.57,3.31-4.64,5.52c-0.6,1.23-1.13,2.56-1.49,3.94c-0.03,0.07-0.05,0.14-0.08,0.22c-0.38,1.11-0.7,2.24-0.9,3.4
					c-0.13,0.73-0.25,1.45-0.31,2.19c-0.05,0.65-0.08,1.42,0.26,2.01C53.88,69.36,54.39,69.12,54.97,69.01z"/>
				<path class="st12" d="M56.26,59.12c0.96-2.06,2.24-4.13,4.08-5.52c1.75-1.33,3.89-2.1,6.07-2.29c2.57-0.23,5.22,0.4,7.62,1.25
					c1.39,0.49,2.73,1.12,4.06,1.77c0.81,0.4,1.57,0.85,2.32,1.32c-0.09,0.08-0.15,0.19-0.13,0.31c0.48,2.71,0.18,5.44-0.31,8.12
					c-0.4,2.19-1.02,4.63-2.79,6.13c-1.89,1.61-4.49,1.53-6.81,1.19c-2.97-0.43-5.88-1.24-8.75-2.11c-1.61-0.49-3.25-0.92-4.94-0.98
					c-0.68-0.03-1.47-0.05-2.13,0.17c-0.28,0.09-0.48,0.23-0.63,0.4c-0.09-0.46-0.06-0.97-0.03-1.41c0.04-0.44,0.1-0.88,0.17-1.32
					c0.05,0,0.11-0.02,0.11-0.07C54.36,63.68,55.26,61.27,56.26,59.12z"/>
				<path class="st0" d="M79.12,51.78c-1.95-1.85-4.58-3.18-7.11-4c-2.27-0.74-4.78-1.33-7.14-0.68c-3.96,1.1-6.94,4.4-8.82,7.91
					c-1.06,1.98-1.75,4.08-2.2,6.28c-0.03,0.13,0.22,0.1,0.24-0.01c0.81-3.71,2.76-7.43,5.4-10.16c1.32-1.36,2.9-2.51,4.67-3.18
					c2.23-0.85,4.53-0.46,6.76,0.19c1.37,0.4,2.69,0.94,3.96,1.58c1.35,0.69,2.55,1.57,3.82,2.39
					C78.9,52.23,79.36,52.01,79.12,51.78z"/>
				<g>
					<defs>
						<path id="SVGID_1_" d="M56.26,59.12c0.96-2.06,2.24-4.13,4.08-5.52c1.75-1.33,3.89-2.1,6.07-2.29
							c2.57-0.23,5.22,0.4,7.62,1.25c1.39,0.49,2.73,1.12,4.06,1.77c0.81,0.4,1.57,0.85,2.32,1.32c-0.09,0.08-0.15,0.19-0.13,0.31
							c0.48,2.71,0.18,5.44-0.31,8.12c-0.4,2.19-1.02,4.63-2.79,6.13c-1.89,1.61-4.49,1.53-6.81,1.19
							c-2.97-0.43-5.88-1.24-8.75-2.11c-1.61-0.49-3.25-0.92-4.94-0.98c-0.68-0.03-1.47-0.05-2.13,0.17
							c-0.28,0.09-0.48,0.23-0.63,0.4c-0.09-0.46-0.06-0.97-0.03-1.41c0.04-0.44,0.1-0.88,0.17-1.32c0.05,0,0.11-0.02,0.11-0.07
							C54.36,63.68,55.26,61.27,56.26,59.12z"/>
					</defs>
					<clipPath id="SVGID_00000135690829060836672970000004706858098358404538_">
						<use xlink:href="#SVGID_1_"  style="overflow:visible;"/>
					</clipPath>
					<g style="clip-path:url(#SVGID_00000135690829060836672970000004706858098358404538_);">
						<path class="st19" d="M72.54,61.49c1,7.14-2.3,13.51-7.38,14.23c-5.08,0.71-10-4.5-11-11.65c-1-7.14,2.3-13.51,7.38-14.23
							C66.61,49.13,71.54,54.34,72.54,61.49z"/>
						<path class="st12" d="M59.55,59.5c0.19,1.35-0.43,2.55-1.39,2.68s-1.89-0.85-2.08-2.2c-0.19-1.35,0.43-2.55,1.39-2.68
							C58.43,57.17,59.36,58.15,59.55,59.5z"/>
					</g>
				</g>
				<path class="st20" d="M54.06,66.13c-0.07,0.44-0.13,0.88-0.17,1.32c0,0.01,0,0.02,0,0.02c0.44-1.57,1.05-3.08,1.87-4.49
					c1.14-1.96,2.68-3.69,4.6-4.9c2.21-1.4,4.83-2,7.43-2.11c2.91-0.13,5.79,0.36,8.67,0.68c1.3,0.14,2.64,0.23,3.93,0.09
					c-0.03-0.27-0.07-0.53-0.11-0.8c-0.02-0.12,0.04-0.23,0.13-0.31c-0.76-0.46-1.51-0.92-2.32-1.32c-1.33-0.65-2.67-1.28-4.06-1.77
					c-2.41-0.85-5.06-1.47-7.62-1.25c-2.18,0.19-4.32,0.96-6.07,2.29c-1.83,1.39-3.12,3.46-4.08,5.52c-1,2.15-1.91,4.56-2.09,6.94
					C54.17,66.11,54.11,66.14,54.06,66.13z"/>
				<path class="st0" d="M39.48,63.49c-0.85-1.96-2.02-3.79-3.54-5.29c-1.6-1.59-3.55-2.78-5.66-3.56
					c-0.17-0.06-0.21-0.35-0.05-0.45c0.7-0.4,1.45-0.88,2.24-1.25c-0.68-0.11-1.37-0.13-2.04-0.04c-0.63,0.08-1.23,0.25-1.84,0.41
					c-2.03,0.16-4.05,0.5-6.05,0.9c-1.96,0.39-3.94,0.74-5.85,1.34c-1.78,0.57-3.68,1.36-4.97,2.77c-1.25,1.38-1.78,3.22-1.97,5.03
					c-0.21,2.02-0.13,4.08,0.05,6.1c0.19,2.14,0.56,4.26,1.1,6.34c1.02,3.89,2.65,7.61,4.93,10.92c2.07,3,4.77,6.04,8.28,7.32
					c1.6,0.59,3.35,0.74,5.01,0.31c1.52-0.39,2.89-1.22,4.04-2.26c2.53-2.28,4.31-5.44,5.67-8.52c1.41-3.18,2.33-6.59,2.65-10.05
					C41.43,70.08,40.85,66.64,39.48,63.49z"/>
				<path class="st9" d="M39.59,80.45c-1.11,3.42-2.78,6.86-5.05,9.67c-1.97,2.45-4.7,4.4-7.99,4.02c-3.63-0.42-6.59-3.16-8.78-5.89
					c-4.97-6.18-7.39-14.18-7.49-22.05c-0.02-1.82,0.03-3.71,0.63-5.45c0.29-0.85,0.74-1.65,1.36-2.31c0.65-0.7,1.49-1.2,2.35-1.62
					c1.76-0.85,3.67-1.33,5.57-1.73c2.03-0.43,4.06-0.82,6.11-1.17c0.36-0.06,0.73-0.12,1.09-0.19c0,0.08,0.04,0.15,0.18,0.13
					c0.96-0.14,1.89-0.41,2.85-0.53c0.99-0.13,1.99,0,2.94,0.28c1.87,0.56,3.37,1.79,4.42,3.42c2.04,3.15,2.84,7.01,3.2,10.69
					C41.39,72.05,40.93,76.34,39.59,80.45z"/>
				<path class="st9" d="M39.59,80.45c-1.11,3.42-2.78,6.86-5.05,9.67c-1.97,2.45-4.7,4.4-7.99,4.02c-3.63-0.42-6.59-3.16-8.78-5.89
					c-4.97-6.18-7.39-14.18-7.49-22.05c-0.02-1.82,0.03-3.71,0.63-5.45c0.29-0.85,0.74-1.65,1.36-2.31c0.65-0.7,1.49-1.2,2.35-1.62
					c1.76-0.85,3.67-1.33,5.57-1.73c2.03-0.43,4.06-0.82,6.11-1.17c0.36-0.06,0.73-0.12,1.09-0.19c0,0.08,0.04,0.15,0.18,0.13
					c0.96-0.14,1.89-0.41,2.85-0.53c0.99-0.13,1.99,0,2.94,0.28c1.87,0.56,3.37,1.79,4.42,3.42c2.04,3.15,2.84,7.01,3.2,10.69
					C41.39,72.05,40.93,76.34,39.59,80.45z"/>
				<path class="st10" d="M40.97,67.75c-0.36-3.69-1.16-7.54-3.2-10.69c-1.05-1.63-2.55-2.86-4.42-3.42
					c-0.95-0.28-1.95-0.41-2.94-0.28c-0.96,0.13-1.89,0.39-2.85,0.53c-0.13,0.02-0.18-0.05-0.18-0.13
					c-0.36,0.06-0.73,0.12-1.09,0.19c-2.04,0.35-4.08,0.74-6.11,1.17c-1.9,0.4-3.81,0.87-5.57,1.73c-0.86,0.42-1.7,0.91-2.35,1.62
					c-0.61,0.66-1.06,1.46-1.36,2.31c-0.52,1.49-0.62,3.09-0.63,4.66c0.22,0.6,0.53,1.17,0.95,1.68c1,1.21,2.45,1.95,3.89,2.51
					c3.44,1.32,7.16,1.72,10.58,3.09c1.55,0.62,3.05,1.47,4.16,2.74c1.38,1.58,2.08,3.83,2.2,5.9c0.27,4.42-2.3,8.78-6.33,10.64
					c-0.96,0.44-2,0.72-3.04,0.81c1.19,0.71,2.47,1.21,3.86,1.37c3.29,0.38,6.02-1.58,7.99-4.02c2.27-2.81,3.93-6.25,5.05-9.67
					C40.93,76.34,41.39,72.05,40.97,67.75z"/>
				<g>
					<path class="st21" d="M29.1,52.91c-1.4-1.5-3.6-2.03-5.57-2.18c-0.02,0-0.05,0-0.07,0.01c-0.7-0.19-1.41-0.37-2.12-0.54
						c-2.47-0.58-5.04-0.92-7.55-0.47c-1.89,0.34-3.76,1.14-5.06,2.59c-1.47,1.64-1.79,3.82-1.61,5.95c0.2,2.37,1.05,4.88,2.82,6.55
						c1.7,1.61,4.06,2.02,6.32,1.7c2.39-0.34,4.81-1.24,6.93-2.39c2.18-1.18,4.16-2.85,5.61-4.87
						C30.16,57.36,30.87,54.81,29.1,52.91z"/>
					<path class="st22" d="M28.78,57.83c-0.99,2-2.83,3.72-4.66,4.95c-1.86,1.24-3.99,2.09-6.14,2.67
						c-2.05,0.56-4.33,0.72-6.23-0.38c-1.95-1.12-3.05-3.36-3.5-5.49c-0.42-1.98-0.51-4.29,0.54-6.09c0.87-1.49,2.43-2.39,4.05-2.84
						c2.4-0.67,4.92-0.43,7.33,0.07c1.43,0.3,2.84,0.69,4.27,1.01c0.95,0.21,1.96,0.43,2.85,0.86c0.19,0.12,0.38,0.25,0.55,0.38
						C29.39,54.21,29.63,56.09,28.78,57.83z"/>
					<path class="st22" d="M25.29,59.13c-2.08,0.97-4.4,1.38-6.68,1.52c-1.18,0.07-2.36,0.07-3.54,0.01
						c-1.18-0.06-2.37-0.13-3.52-0.43c-1.36-0.35-2.61-1.01-3.54-2.01c0.05,0.46,0.13,0.92,0.22,1.36c0.45,2.13,1.55,4.36,3.5,5.49
						c1.9,1.1,4.19,0.94,6.23,0.38c2.15-0.59,4.28-1.43,6.14-2.67c1.83-1.23,3.68-2.95,4.66-4.95c0.29-0.58,0.45-1.17,0.48-1.75
						C28.2,57.37,26.85,58.41,25.29,59.13z"/>
					<path class="st23" d="M10.85,52.64c3.45-1.68,7.62-1.54,11.29-0.8c2.24,0.46,4.52,1.16,6.62,2.17
						c-0.23-0.38-0.53-0.73-0.92-1.03c-0.18-0.14-0.36-0.26-0.55-0.38c-0.89-0.44-1.9-0.65-2.85-0.86
						c-1.43-0.32-2.84-0.72-4.27-1.01c-2.41-0.5-4.93-0.74-7.33-0.07c-1.62,0.45-3.18,1.35-4.05,2.84
						c-0.14,0.24-0.26,0.49-0.36,0.74c-0.01,0.03-0.01,0.07-0.01,0.1C9.12,53.66,9.94,53.08,10.85,52.64z"/>
				</g>
			</g>
		</g>
		<g>
			<path class="st24" d="M40.98,95.25c-2.38-4.12-5.23-7.89-8.81-11.04c-1.97-1.74-4.11-3.29-6.38-4.61
				c-0.19-0.11-0.53,0.21-0.32,0.34c4,2.37,7.67,5.32,10.67,8.88c3.06,3.63,5.41,7.82,7.5,12.06c1.2,2.43,2.32,4.9,3.46,7.37
				c0.03,0.07,0.18-0.02,0.15-0.08C45.28,103.79,43.38,99.39,40.98,95.25z"/>
			<path class="st24" d="M47.98,94.3c-4.22-5.88-9.24-11.28-15.66-14.77c-1.77-0.96-3.61-1.75-5.56-2.29
				c-0.21-0.06-0.5,0.29-0.24,0.38c6.88,2.33,12.65,6.84,17.49,12.17c1.35,1.48,2.61,3.02,3.78,4.65
				C47.85,94.53,48.04,94.39,47.98,94.3z"/>
			<path class="st24" d="M50.28,70.56c-5.62,3.33-12.45,4.2-18.87,4.48c-1.77,0.08-3.54,0.08-5.31,0.16
				c-0.16,0.01-0.33,0.28-0.1,0.29c3.23,0.15,6.51-0.04,9.72-0.4c3.31-0.36,6.6-0.99,9.74-2.12c1.7-0.61,3.34-1.39,4.89-2.32
				C50.45,70.61,50.38,70.5,50.28,70.56z"/>
			<path class="st24" d="M36.11,65.89c-1.91,3.14-5.45,4.82-8.48,6.66c-0.15,0.09-0.07,0.33,0.11,0.24
				c1.65-0.87,3.27-1.83,4.77-2.94c1.46-1.08,2.82-2.34,3.74-3.92C36.3,65.83,36.16,65.81,36.11,65.89z"/>
		</g>
	</g>
</g>
</svg>
